<?xml version="1.0" encoding="UTF-8" standalone="no"?>
<svg width="261px" height="293px" viewBox="0 0 261 293" version="1.1" xmlns="http://www.w3.org/2000/svg" xmlns:xlink="http://www.w3.org/1999/xlink" xmlns:sketch="http://www.bohemiancoding.com/sketch/ns">
    <!-- Generator: Sketch 3.4 (15588) - http://www.bohemiancoding.com/sketch -->
    <title>cnc</title>
    <desc>Created with Sketch.</desc>
    <defs></defs>
    <g id="Page-1" stroke="none" stroke-width="1" fill="none" fill-rule="evenodd" sketch:type="MSPage">
        <g id="cnc" sketch:type="MSLayerGroup" transform="translate(2.000000, 2.000000)" stroke="#000000" stroke-width="5">
            <rect id="shell" fill="#BCEBDD" sketch:type="MSShapeGroup" x="0.5" y="0.5" width="256" height="288"></rect>
            <path d="M48.5,224.5 L16.5,224.5 L16.5,16.5 L240.5,16.5 L240.5,224.5 L208.5,224.5" id="background" fill="#FFFFFF" sketch:type="MSShapeGroup"></path>
            <rect id="Rectangle-path" fill="#FFFFFF" sketch:type="MSShapeGroup" x="152.5" y="88.5" width="16" height="16"></rect>
            <path d="M16.5,64.5 L240.5,64.5" id="Shape" sketch:type="MSShapeGroup"></path>
            <path d="M240.5,80.5 L16.5,80.5" id="Shape" sketch:type="MSShapeGroup"></path>
            <rect id="Rectangle-path" fill="#FFFFFF" sketch:type="MSShapeGroup" x="80.5" y="16.5" width="32" height="208"></rect>
            <path d="M208.5,224.5 L48.5,224.5 L48.5,208.5 L57.5,208.5 L183.75,208.5 L199.5,208.5 L208.5,208.5 L208.5,224.5 Z" id="Shape" fill="#FFFFFF" sketch:type="MSShapeGroup"></path>
            <circle id="Oval" fill="#FFFFFF" sketch:type="MSShapeGroup" cx="32.5" cy="256.5" r="16"></circle>
            <circle id="Oval" fill="#FBD764" sketch:type="MSShapeGroup" cx="72.5" cy="248.5" r="8"></circle>
            <rect id="Rectangle-path" fill="#FFFFFF" sketch:type="MSShapeGroup" x="144.5" y="48.5" width="32" height="48"></rect>
            <rect id="object" fill="#FBD764" sketch:type="MSShapeGroup" x="64.5" y="112.5" width="128" height="96"></rect>
            <path d="M136.5,40.5 C136.5,44.918 132.918,48.5 128.5,48.5" id="Shape" sketch:type="MSShapeGroup"></path>
            <path d="M136.5,40.5 C136.5,36.082 140.082,32.5 144.5,32.5 C148.918,32.5 152.5,36.082 152.5,40.5" id="Shape" sketch:type="MSShapeGroup"></path>
            <path d="M152.5,40.5 C152.5,36.082 156.082,32.5 160.5,32.5 C164.918,32.5 168.5,36.082 168.5,40.5" id="Shape" sketch:type="MSShapeGroup"></path>
            <path d="M152.5,40.5 L152.5,48.5" id="Shape" sketch:type="MSShapeGroup"></path>
            <path d="M168.5,40.5 L168.5,48.5" id="Shape" sketch:type="MSShapeGroup"></path>
            <path d="M128.5,48.5 L112.5,48.5" id="Shape" sketch:type="MSShapeGroup"></path>
            <path d="M160.5,104.5 L160.5,112.5" id="Shape" sketch:type="MSShapeGroup"></path>
        </g>
    </g>
</svg>