<?xml version="1.0" encoding="UTF-8" standalone="no"?>
<svg width="25px" height="25px" viewBox="0 0 25 25" version="1.1" xmlns="http://www.w3.org/2000/svg" xmlns:xlink="http://www.w3.org/1999/xlink" xmlns:sketch="http://www.bohemiancoding.com/sketch/ns">
    <!-- Generator: Sketch 3.2.2 (9983) - http://www.bohemiancoding.com/sketch -->
    <title>cog</title>
    <desc>Created with Sketch.</desc>
    <defs></defs>
    <g id="Page-1" stroke="none" stroke-width="1" fill="none" fill-rule="evenodd" sketch:type="MSPage">
        <g id="680x680" sketch:type="MSArtboardGroup" transform="translate(-608.000000, -131.000000)" fill="#231F1F">
            <g id="Row-2" sketch:type="MSLayerGroup" transform="translate(48.000000, 129.000000)">
                <path d="M573.797,26.281 L572.036,26.281 C571.19,26.281 570.5,25.591 570.5,24.744 L570.5,24.402 C570.5,23.961 570.212,23.566 569.783,23.418 C569.403,23.286 569.026,23.128 568.662,22.948 C568.257,22.747 567.757,22.824 567.447,23.132 L567.202,23.377 C566.62,23.959 565.609,23.958 565.029,23.378 L563.784,22.133 C563.186,21.534 563.186,20.56 563.784,19.96 L564.045,19.7 C564.357,19.387 564.433,18.901 564.231,18.49 C564.058,18.135 563.902,17.762 563.773,17.383 C563.624,16.952 563.227,16.662 562.786,16.662 L562.418,16.662 C561.571,16.662 560.882,15.973 560.882,15.125 L560.882,13.365 C560.882,12.518 561.571,11.829 562.418,11.829 L562.786,11.829 C563.227,11.829 563.624,11.54 563.773,11.108 C563.902,10.729 564.058,10.356 564.231,10.001 C564.433,9.59 564.357,9.104 564.045,8.791 L563.784,8.531 C563.186,7.932 563.186,6.957 563.784,6.358 L565.029,5.113 C565.629,4.513 566.6,4.513 567.202,5.113 L567.447,5.359 C567.756,5.667 568.256,5.743 568.662,5.543 C569.026,5.363 569.403,5.205 569.783,5.073 C570.212,4.925 570.5,4.529 570.5,4.089 L570.5,3.747 C570.5,2.9 571.19,2.21 572.036,2.21 L573.797,2.21 C574.644,2.21 575.333,2.9 575.333,3.747 L575.333,4.058 C575.333,4.501 575.624,4.898 576.056,5.044 C576.443,5.176 576.829,5.335 577.204,5.519 C577.607,5.716 578.106,5.639 578.413,5.332 L578.632,5.113 C579.232,4.513 580.203,4.513 580.805,5.113 L582.049,6.358 C582.649,6.958 582.65,7.929 582.049,8.531 L581.845,8.735 C581.53,9.049 581.456,9.537 581.66,9.947 C581.848,10.326 582.011,10.717 582.146,11.11 C582.293,11.54 582.688,11.829 583.13,11.829 L583.415,11.829 C584.263,11.829 584.952,12.518 584.952,13.365 L584.952,15.125 C584.952,15.973 584.263,16.662 583.415,16.662 L583.13,16.662 C582.688,16.662 582.293,16.951 582.146,17.38 C582.012,17.774 581.849,18.165 581.661,18.543 C581.456,18.955 581.53,19.442 581.845,19.756 L582.049,19.96 C582.649,20.56 582.65,21.531 582.049,22.134 L580.805,23.378 C580.223,23.959 579.212,23.958 578.632,23.378 L578.413,23.159 C578.106,22.852 577.607,22.775 577.204,22.972 C576.829,23.156 576.443,23.315 576.057,23.447 C575.624,23.593 575.333,23.99 575.333,24.433 L575.333,24.744 C575.333,25.591 574.644,26.281 573.797,26.281 L573.797,26.281 Z M568.176,21.833 C568.495,21.833 568.816,21.909 569.106,22.052 C569.432,22.213 569.771,22.355 570.111,22.473 C570.941,22.761 571.5,23.536 571.5,24.402 L571.5,24.744 C571.5,25.04 571.74,25.281 572.036,25.281 L573.797,25.281 C574.093,25.281 574.333,25.04 574.333,24.744 L574.333,24.433 C574.333,23.56 574.896,22.784 575.735,22.499 C576.082,22.382 576.428,22.239 576.765,22.074 C577.544,21.692 578.518,21.849 579.12,22.452 L579.339,22.671 C579.543,22.875 579.896,22.873 580.098,22.67 L581.342,21.426 C581.552,21.216 581.551,20.876 581.342,20.668 L581.138,20.463 C580.519,19.845 580.369,18.894 580.766,18.099 C580.933,17.76 581.079,17.409 581.2,17.057 C581.485,16.223 582.261,15.662 583.13,15.662 L583.415,15.662 C583.711,15.662 583.952,15.421 583.952,15.125 L583.952,13.365 C583.952,13.07 583.711,12.829 583.415,12.829 L583.13,12.829 C582.261,12.829 581.485,12.269 581.2,11.434 C581.079,11.081 580.933,10.731 580.765,10.392 C580.369,9.597 580.519,8.646 581.138,8.028 L581.342,7.824 C581.552,7.614 581.552,7.275 581.342,7.065 L580.098,5.82 C579.896,5.619 579.543,5.616 579.339,5.82 L579.12,6.039 C578.518,6.642 577.544,6.799 576.765,6.416 C576.428,6.252 576.082,6.109 575.734,5.992 C574.896,5.707 574.333,4.93 574.333,4.058 L574.333,3.747 C574.333,3.451 574.093,3.21 573.797,3.21 L572.036,3.21 C571.74,3.21 571.5,3.451 571.5,3.747 L571.5,4.089 C571.5,4.955 570.941,5.73 570.111,6.019 C569.771,6.136 569.432,6.278 569.106,6.439 C568.325,6.827 567.349,6.672 566.74,6.066 L566.495,5.82 C566.292,5.62 565.94,5.616 565.736,5.82 L564.491,7.065 C564.282,7.274 564.282,7.615 564.491,7.824 L564.752,8.084 C565.367,8.699 565.519,9.646 565.13,10.441 C564.974,10.76 564.835,11.094 564.718,11.433 C564.432,12.268 563.655,12.829 562.786,12.829 L562.418,12.829 C562.122,12.829 561.882,13.07 561.882,13.365 L561.882,15.125 C561.882,15.421 562.122,15.662 562.418,15.662 L562.786,15.662 C563.655,15.662 564.432,16.223 564.718,17.058 C564.835,17.397 564.974,17.731 565.13,18.05 C565.519,18.845 565.367,19.792 564.752,20.407 L564.491,20.667 C564.282,20.876 564.282,21.217 564.491,21.426 L565.736,22.671 C565.94,22.875 566.292,22.873 566.495,22.67 L566.74,22.426 C567.123,22.043 567.632,21.833 568.176,21.833 L568.176,21.833 Z M572.959,20.704 C570.989,20.704 569.152,19.822 567.919,18.285 C566.685,16.748 566.227,14.739 566.663,12.773 C567.194,10.375 569.088,8.482 571.486,7.95 C573.944,7.408 576.458,8.288 577.997,10.206 C579.231,11.743 579.69,13.751 579.254,15.717 C578.723,18.115 576.829,20.009 574.431,20.541 C573.942,20.649 573.447,20.704 572.959,20.704 L572.959,20.704 Z M572.958,8.787 C572.542,8.787 572.12,8.834 571.703,8.927 C569.713,9.368 568.08,11 567.64,12.99 C567.27,14.658 567.656,16.36 568.699,17.659 C570.002,19.283 572.123,20.028 574.214,19.564 C576.204,19.123 577.837,17.49 578.277,15.5 C578.646,13.833 578.261,12.131 577.218,10.831 C576.175,9.532 574.622,8.787 572.958,8.787 L572.958,8.787 Z" id="cog" sketch:type="MSShapeGroup"></path>
            </g>
        </g>
    </g>
</svg>