<?xml version="1.0" encoding="UTF-8" standalone="no"?>
<svg width="60px" height="50px" viewBox="0 0 60 50" version="1.1" xmlns="http://www.w3.org/2000/svg" xmlns:xlink="http://www.w3.org/1999/xlink" xmlns:sketch="http://www.bohemiancoding.com/sketch/ns">
    <!-- Generator: Sketch 3.1 (8751) - http://www.bohemiancoding.com/sketch -->
    <title>Gears</title>
    <desc>Created with Sketch.</desc>
    <defs></defs>
    <g id="Icons" stroke="none" stroke-width="1" fill="none" fill-rule="evenodd" sketch:type="MSPage">
        <g id="Automotive" sketch:type="MSArtboardGroup" transform="translate(-1032.000000, -393.000000)" fill="#231F1F">
            <g id="Gears" sketch:type="MSLayerGroup" transform="translate(1032.000000, 393.000000)">
                <path d="M31.207,27.015 C32.399,25.274 33.257,23.288 33.686,21.148 C35.035,20.72 36,19.452 36,18 C36,16.548 35.035,15.28 33.686,14.852 C33.257,12.712 32.399,10.726 31.207,8.986 C31.609,7.816 31.345,6.475 30.435,5.565 C29.545,4.675 28.185,4.41 27.02,4.797 C25.278,3.603 23.29,2.744 21.148,2.315 C20.719,0.966 19.451,0 18,0 C16.549,0 15.281,0.965 14.852,2.315 C12.709,2.744 10.722,3.603 8.979,4.797 C7.814,4.411 6.454,4.676 5.565,5.565 C4.655,6.475 4.391,7.816 4.793,8.985 C3.601,10.726 2.743,12.712 2.314,14.852 C0.965,15.28 0,16.548 0,18 C0,19.452 0.965,20.72 2.314,21.148 C2.743,23.288 3.601,25.274 4.793,27.015 C4.391,28.184 4.655,29.525 5.565,30.435 C6.189,31.059 7.02,31.403 7.903,31.403 C8.281,31.403 8.647,31.337 8.995,31.215 C10.733,32.403 12.716,33.258 14.852,33.686 C15.281,35.035 16.548,36 18,36 C19.451,36 20.719,35.035 21.148,33.686 C23.284,33.258 25.266,32.403 27.005,31.215 C27.352,31.337 27.719,31.403 28.097,31.403 C28.979,31.403 29.811,31.059 30.435,30.435 C31.345,29.525 31.609,28.184 31.207,27.015 L31.207,27.015 Z M18,32 C10.28,32 4,25.72 4,18 C4,10.28 10.28,4 18,4 C25.72,4 32,10.28 32,18 C32,25.72 25.72,32 18,32 L18,32 Z M57.59,31.82 C57.277,30.582 56.789,29.417 56.149,28.349 C56.863,27.077 56.668,25.444 55.612,24.388 C54.578,23.353 52.911,23.156 51.652,23.852 C50.583,23.211 49.418,22.723 48.181,22.41 C47.784,21.008 46.492,19.992 45,19.992 C43.508,19.992 42.216,21.008 41.819,22.41 C40.582,22.723 39.417,23.212 38.348,23.852 C37.087,23.157 35.422,23.354 34.388,24.388 C33.331,25.444 33.137,27.078 33.851,28.35 C33.211,29.418 32.723,30.583 32.41,31.82 C31.008,32.216 29.992,33.508 29.992,35 C29.992,36.492 31.008,37.784 32.41,38.18 C32.723,39.418 33.211,40.583 33.851,41.651 C33.137,42.923 33.331,44.556 34.388,45.612 C35.015,46.239 35.849,46.585 36.734,46.585 C37.311,46.585 37.861,46.432 38.355,46.153 C39.421,46.791 40.584,47.278 41.819,47.59 C42.216,48.992 43.509,50.008 45,50.008 C46.491,50.008 47.784,48.992 48.181,47.59 C49.416,47.278 50.579,46.791 51.645,46.153 C52.139,46.432 52.689,46.585 53.266,46.585 C54.151,46.585 54.985,46.239 55.612,45.612 C56.669,44.556 56.863,42.922 56.15,41.65 C56.789,40.582 57.277,39.417 57.59,38.18 C58.992,37.784 60.008,36.492 60.008,35 C60.008,33.508 58.992,32.216 57.59,31.82 L57.59,31.82 Z M45,46 C38.935,46 34,41.066 34,35 C34,28.935 38.935,24 45,24 C51.065,24 56,28.935 56,35 C56,41.066 51.065,46 45,46 L45,46 Z M18,12 C14.691,12 12,14.692 12,18 C12,21.309 14.691,24 18,24 C21.309,24 24,21.309 24,18 C24,14.692 21.309,12 18,12 L18,12 Z M18,22 C15.794,22 14,20.206 14,18 C14,15.795 15.794,14 18,14 C20.206,14 22,15.795 22,18 C22,20.206 20.206,22 18,22 L18,22 Z M45,30 C42.243,30 40,32.243 40,35 C40,37.757 42.243,40 45,40 C47.757,40 50,37.757 50,35 C50,32.243 47.757,30 45,30 L45,30 Z M45,38 C43.346,38 42,36.654 42,35 C42,33.346 43.346,32 45,32 C46.654,32 48,33.346 48,35 C48,36.654 46.654,38 45,38 L45,38 Z" sketch:type="MSShapeGroup"></path>
            </g>
        </g>
    </g>
</svg>