<?xml version="1.0" encoding="UTF-8" standalone="no"?>
<svg width="42px" height="35px" viewBox="0 0 42 35" version="1.1" xmlns="http://www.w3.org/2000/svg" xmlns:xlink="http://www.w3.org/1999/xlink" xmlns:sketch="http://www.bohemiancoding.com/sketch/ns">
    <!-- Generator: Sketch 3.0.4 (8053) - http://www.bohemiancoding.com/sketch -->
    <title>Desktop (over)</title>
    <desc>Created with Sketch.</desc>
    <defs></defs>
    <g id="Icons" stroke="none" stroke-width="1" fill="none" fill-rule="evenodd" sketch:type="MSPage">
        <g id="Design-&amp;-Development" sketch:type="MSArtboardGroup" transform="translate(-318.000000, -402.000000)" fill="#231F1F">
            <g id="Desktop-(over)" sketch:type="MSLayerGroup" transform="translate(319.000000, 402.000000)">
                <path d="M3.957,28 L19.957,28 L19.957,31 L3.957,31 L3.957,28 Z M18.957,23 L18.957,26 L21.957,26 L21.957,31 L24.957,31 L24.957,23 L18.957,23 L18.957,23 Z M13.957,26 L16.957,26 L16.957,23 L13.957,23 L13.957,26 Z M8.957,26 L11.957,26 L11.957,23 L8.957,23 L8.957,26 Z M3.957,26 L6.957,26 L6.957,23 L3.957,23 L3.957,26 Z M28.957,22 L28.957,32 C28.957,33.654 27.611,35 25.957,35 L2.957,35 C1.302,35 -0.043,33.654 -0.043,32 L-0.043,22 C-0.043,20.346 1.302,19 2.957,19 L25.957,19 C27.611,19 28.957,20.346 28.957,22 L28.957,22 Z M26.957,22 C26.957,21.449 26.508,21 25.957,21 L2.957,21 C2.405,21 1.957,21.449 1.957,22 L1.957,32 C1.957,32.551 2.405,33 2.957,33 L25.957,33 C26.508,33 26.957,32.551 26.957,32 L26.957,22 L26.957,22 Z M40.957,23 L40.957,31 C40.957,33.206 39.162,35 36.957,35 L34.957,35 C32.751,35 30.957,33.206 30.957,31 L30.957,23 C30.957,20.794 32.751,19 34.957,19 L36.957,19 C39.162,19 40.957,20.794 40.957,23 L40.957,23 Z M38.957,23 C38.957,21.897 38.06,21 36.957,21 L34.957,21 C33.853,21 32.957,21.897 32.957,23 L32.957,31 C32.957,32.103 33.853,33 34.957,33 L36.957,33 C38.06,33 38.957,32.103 38.957,31 L38.957,23 L38.957,23 Z M27.942,7.833 C27.851,7.289 27.336,6.919 26.79,7.014 C26.245,7.106 25.878,7.623 25.971,8.167 L26.921,13.759 C26.996,14.056 26.931,14.366 26.741,14.609 C26.548,14.857 26.254,15 25.937,15 L14.984,15 C14.667,15 14.373,14.857 14.18,14.609 C13.99,14.366 13.925,14.056 14.016,13.68 L14.943,8.166 C15.034,7.621 14.667,7.105 14.122,7.014 C13.572,6.922 13.061,7.29 12.97,7.834 L12.06,13.271 C11.834,14.17 12.031,15.106 12.602,15.839 C13.177,16.577 14.045,17 14.984,17 L25.937,17 C26.876,17 27.744,16.577 28.319,15.839 C28.89,15.106 29.087,14.17 28.877,13.348 L27.942,7.833 L27.942,7.833 Z M40.957,2 L40.957,4 C40.957,5.103 40.06,6 38.957,6 L1.957,6 C0.853,6 -0.043,5.103 -0.043,4 L-0.043,2 C-0.043,0.897 0.853,0 1.957,0 L38.957,0 C40.06,0 40.957,0.897 40.957,2 L40.957,2 Z M38.958,4 L38.957,2 L1.957,2 L1.957,4 L38.958,4 L38.958,4 Z" sketch:type="MSShapeGroup"></path>
            </g>
        </g>
    </g>
</svg>