<?xml version="1.0" encoding="UTF-8" standalone="no"?>
<svg width="24px" height="26px" viewBox="0 0 24 26" version="1.1" xmlns="http://www.w3.org/2000/svg" xmlns:xlink="http://www.w3.org/1999/xlink" xmlns:sketch="http://www.bohemiancoding.com/sketch/ns">
    <!-- Generator: Sketch 3.2.2 (9983) - http://www.bohemiancoding.com/sketch -->
    <title>cube-open</title>
    <desc>Created with Sketch.</desc>
    <defs></defs>
    <g id="Page-1" stroke="none" stroke-width="1" fill="none" fill-rule="evenodd" sketch:type="MSPage">
        <g id="680x680" sketch:type="MSArtboardGroup" transform="translate(-449.000000, -48.000000)" fill="#231F1F">
            <g id="Row-1" sketch:type="MSLayerGroup" transform="translate(52.000000, 48.000000)">
                <path d="M407.63,14.148577 L407.63,24.575577 C407.63,25.048577 407.118,25.344577 406.708,25.107577 L397.788,19.957577 C397.301,19.676577 397,19.156577 397,18.593577 L397,8.43657704 C397,7.16057704 397.681,5.98157704 398.786,5.34357704 L407.602,0.253577043 C408.033,0.00457704331 408.546,-0.0644229567 409.028,0.0615770433 L418.317,2.50057704 C418.81,2.63057704 418.896,3.29257704 418.453,3.54457704 L409.423,8.67257704 C408.995,8.91557704 408.489,8.98257704 408.013,8.85857704 L400.292,6.84857704 C399.797,6.71957704 399.282,6.97357704 399.084,7.44557704 L399.077,7.46257704 C398.875,7.94157704 399.063,8.49557704 399.515,8.75357704 L406.977,13.021577 C407.381,13.252577 407.63,13.682577 407.63,14.148577 L407.63,14.148577 Z M417.011,5.53557704 L415.267,6.55357704 L417.579,7.85657704 C417.939,8.05957704 417.94,8.57757704 417.582,8.78257704 L410.211,12.992577 C409.793,13.231577 409.536,13.674577 409.536,14.155577 L409.536,24.547577 C409.536,25.020577 410.048,25.316577 410.458,25.080577 L419.364,19.938577 C419.83,19.668577 420.118,19.170577 420.118,18.632577 L420.118,8.16057704 C420.118,7.56757704 419.791,7.02157704 419.267,6.74157704 L417.011,5.53557704 L417.011,5.53557704 Z" id="cube-open" sketch:type="MSShapeGroup"></path>
            </g>
        </g>
    </g>
</svg>