<?xml version="1.0" encoding="UTF-8" standalone="no"?>
<svg width="22px" height="48px" viewBox="0 0 22 48" version="1.1" xmlns="http://www.w3.org/2000/svg" xmlns:xlink="http://www.w3.org/1999/xlink" xmlns:sketch="http://www.bohemiancoding.com/sketch/ns">
    <!-- Generator: Sketch 3.2.2 (9983) - http://www.bohemiancoding.com/sketch -->
    <title>drill</title>
    <desc>Created with Sketch.</desc>
    <defs></defs>
    <g id="Page-1" stroke="none" stroke-width="1" fill="none" fill-rule="evenodd" sketch:type="MSPage">
        <g id="drill" sketch:type="MSLayerGroup" transform="translate(-1.000000, 0.000000)" fill="#231F1F">
            <g id="Icons" sketch:type="MSShapeGroup">
                <g id="Automotive">
                    <g id="Keys">
                        <path d="M15.99775,5 C15.99775,5.552 15.55075,6 14.99775,6 L8.99775,6 C8.44475,6 7.99775,5.552 7.99775,5 C7.99775,4.448 8.44475,4 8.99775,4 L14.99775,4 C15.55075,4 15.99775,4.448 15.99775,5 L15.99775,5 L15.99775,5 Z M22.57175,12.65 C23.10475,14.166 23.10475,15.835 22.57175,17.35 L19.05575,27.341 C18.57275,28.715 17.38775,29.696 15.99775,29.939 L15.99775,46 C15.99775,47.103 15.09975,48 13.99775,48 L9.99775,48 C8.89475,48 7.99775,47.103 7.99775,46 L7.99775,29.944 C6.59775,29.709 5.40175,28.723 4.91575,27.341 L1.39975,17.35 C0.86675,15.835 0.86675,14.166 1.39975,12.651 L4.91575,2.659 C5.47475,1.069 6.97375,1.77635684e-15 8.64375,1.77635684e-15 L15.32975,1.77635684e-15 C16.99975,1.77635684e-15 18.49675,1.069 19.05575,2.659 L22.57175,12.65 Z M13.99875,41 L13.99775,39 L9.99775,39 L9.99775,41 L13.99875,41 L13.99875,41 Z M13.99875,42 L13.99775,40 L9.99775,40 L9.99775,42 L13.99875,42 L13.99875,42 Z M13.99875,45 L13.99775,43 L9.99775,43 L9.99775,45 L13.99875,45 L13.99875,45 Z M13.99875,46 L13.99775,44 L9.99775,44 L9.99775,46 L13.99875,46 L13.99875,46 Z M13.99875,33 L13.99775,31 L9.99775,31 L9.99775,33 L13.99875,33 L13.99875,33 Z M13.99875,34 L13.99775,32 L9.99775,32 L9.99775,34 L13.99875,34 L13.99875,34 Z M13.99875,37 L13.99775,35 L9.99775,35 L9.99775,37 L13.99875,37 L13.99875,37 Z M13.99875,38 L13.99775,36 L9.99775,36 L9.99775,38 L13.99875,38 L13.99875,38 Z M20.68475,13.314 L17.16975,3.323 C16.89175,2.531 16.15175,2 15.32975,2 L8.64375,2 C7.81975,2 7.08075,2.531 6.80275,3.323 L3.28675,13.314 C2.90375,14.401 2.90375,15.599 3.28675,16.687 L6.80275,26.677 C7.08075,27.469 7.82075,28 8.64375,28 L15.32975,28 C16.15175,28 16.89175,27.469 17.16975,26.677 L20.68475,16.686 C21.06775,15.599 21.06775,14.401 20.68475,13.314 L20.68475,13.314 L20.68475,13.314 Z" id="KeysLadder-"></path>
                    </g>
                </g>
            </g>
        </g>
    </g>
</svg>