<?xml version="1.0" encoding="UTF-8" standalone="no"?>
<svg width="34px" height="39px" viewBox="0 0 34 39" version="1.1" xmlns="http://www.w3.org/2000/svg" xmlns:xlink="http://www.w3.org/1999/xlink" xmlns:sketch="http://www.bohemiancoding.com/sketch/ns">
    <!-- Generator: Sketch 3.1 (8751) - http://www.bohemiancoding.com/sketch -->
    <title>Car chassis</title>
    <desc>Created with Sketch.</desc>
    <defs></defs>
    <g id="Icons" stroke="none" stroke-width="1" fill="none" fill-rule="evenodd" sketch:type="MSPage">
        <g id="Automotive" sketch:type="MSArtboardGroup" transform="translate(-563.000000, -79.000000)" fill="#231F1F">
            <g id="Car-chassis" sketch:type="MSLayerGroup" transform="translate(563.000000, 79.000000)">
                <path d="M31,27 C29.346,27 28,28.346 28,30 L28,32 L6,32 L6,30 C6,28.346 4.654,27 3,27 C1.346,27 0,28.346 0,30 L0,36 C0,37.654 1.346,39 3,39 C4.654,39 6,37.654 6,36 L6,34 L28,34 L28,36 C28,37.654 29.346,39 31,39 C32.654,39 34,37.654 34,36 L34,30 C34,28.346 32.654,27 31,27 L31,27 Z M4,36 C4,36.551 3.551,37 3,37 C2.449,37 2,36.551 2,36 L2,30 C2,29.449 2.449,29 3,29 C3.551,29 4,29.449 4,30 L4,36 L4,36 Z M32,36 C32,36.551 31.551,37 31,37 C30.449,37 30,36.551 30,36 L30,30 C30,29.449 30.449,29 31,29 C31.551,29 32,29.449 32,30 L32,36 L32,36 Z M31,1 C29.346,1 28,2.346 28,4 L28,6 L6,6 L6,4 C6,2.346 4.654,1 3,1 C1.346,1 0,2.346 0,4 L0,10 C0,11.654 1.346,13 3,13 C4.654,13 6,11.654 6,10 L6,8 L28,8 L28,10 C28,11.654 29.346,13 31,13 C32.654,13 34,11.654 34,10 L34,4 C34,2.346 32.654,1 31,1 L31,1 Z M4,10 C4,10.551 3.551,11 3,11 C2.449,11 2,10.551 2,10 L2,4 C2,3.449 2.449,3 3,3 C3.551,3 4,3.449 4,4 L4,10 L4,10 Z M32,10 C32,10.551 31.551,11 31,11 C30.449,11 30,10.551 30,10 L30,4 C30,3.449 30.449,3 31,3 C31.551,3 32,3.449 32,4 L32,10 L32,10 Z M8,4 L8,1 C8,0.448 8.448,0 9,0 C9.552,0 10,0.448 10,1 L10,4 C10,4.552 9.552,5 9,5 C8.448,5 8,4.552 8,4 L8,4 Z M24,4 L24,1 C24,0.448 24.448,0 25,0 C25.552,0 26,0.448 26,1 L26,4 C26,4.552 25.552,5 25,5 C24.448,5 24,4.552 24,4 L24,4 Z M21,17 L21,23 C21,23.551 21.449,24 22,24 L23,24 C24.654,24 26,25.346 26,27 L26,30 C26,30.552 25.552,31 25,31 C24.448,31 24,30.552 24,30 L24,27 C24,26.449 23.551,26 23,26 L22,26 C20.346,26 19,24.654 19,23 L19,17 C19,15.346 20.346,14 22,14 L23,14 C23.551,14 24,13.551 24,13 L24,10 C24,9.448 24.448,9 25,9 C25.552,9 26,9.448 26,10 L26,13 C26,14.654 24.654,16 23,16 L22,16 C21.449,16 21,16.449 21,17 L21,17 Z M13,23 L13,17 C13,16.449 12.551,16 12,16 L11,16 C9.346,16 8,14.654 8,13 L8,10 C8,9.448 8.448,9 9,9 C9.552,9 10,9.448 10,10 L10,13 C10,13.551 10.449,14 11,14 L12,14 C13.654,14 15,15.346 15,17 L15,23 C15,24.654 13.654,26 12,26 L11,26 C10.449,26 10,26.449 10,27 L10,30 C10,30.552 9.552,31 9,31 C8.448,31 8,30.552 8,30 L8,27 C8,25.346 9.346,24 11,24 L12,24 C12.551,24 13,23.551 13,23 L13,23 Z" sketch:type="MSShapeGroup"></path>
            </g>
        </g>
    </g>
</svg>