<?xml version="1.0" encoding="UTF-8" standalone="no"?>
<svg width="18px" height="22px" viewBox="0 0 18 22" version="1.1" xmlns="http://www.w3.org/2000/svg" xmlns:xlink="http://www.w3.org/1999/xlink" xmlns:sketch="http://www.bohemiancoding.com/sketch/ns">
    <!-- Generator: Sketch 3.3.3 (12081) - http://www.bohemiancoding.com/sketch -->
    <title>flask</title>
    <desc>Created with Sketch.</desc>
    <defs></defs>
    <g id="Page-1" stroke="none" stroke-width="1" fill="none" fill-rule="evenodd" sketch:type="MSPage">
        <g id="680x680-5" sketch:type="MSArtboardGroup" transform="translate(-213.000000, -210.000000)" fill="#000000">
            <g id="Row-3" sketch:type="MSLayerGroup" transform="translate(51.000000, 209.000000)">
                <path d="M179.317,18.278 L174.92,11.537 C174.286,10.565 173.948,9.429 173.948,8.268 L173.948,4.65 C173.948,3.897 174.183,3.096 174.56,2.444 C174.851,1.943 174.489,1.315 173.91,1.315 L167.976,1.315 C167.397,1.315 167.035,1.943 167.326,2.444 C167.703,3.096 167.938,3.897 167.938,4.65 L167.938,8.268 C167.938,9.429 167.6,10.565 166.966,11.537 L162.569,18.278 C161.383,20.096 162.688,22.504 164.858,22.504 L177.028,22.504 C179.198,22.504 180.503,20.096 179.317,18.278 L179.317,18.278 Z M177.069,21.21 L164.817,21.21 C163.693,21.21 163.016,19.965 163.626,19.022 L168.024,12.218 C168.797,11.022 169.208,9.629 169.208,8.205 L169.208,3.302 C169.208,2.917 169.521,2.604 169.906,2.604 L171.958,2.604 C172.344,2.604 172.656,2.917 172.656,3.302 L172.656,8.172 C172.656,9.596 173.067,10.99 173.841,12.185 L178.26,19.022 C178.87,19.965 178.193,21.21 177.069,21.21 L177.069,21.21 Z M176.27,19.943 L165.61,19.943 C165.166,19.943 164.898,19.453 165.138,19.08 L167.966,14.674 C168.102,14.463 168.315,14.317 168.56,14.263 C168.861,14.197 169.191,14.15 169.531,14.15 C170.703,14.15 171.373,14.562 172.405,14.562 C173.057,14.562 173.024,14.508 173.351,14.468 C173.592,14.439 173.832,14.547 173.963,14.751 L176.742,19.08 C176.981,19.453 176.714,19.943 176.27,19.943 L176.27,19.943 Z" id="flask" sketch:type="MSShapeGroup"></path>
            </g>
        </g>
    </g>
</svg>