<?xml version="1.0" encoding="UTF-8" standalone="no"?>
<svg width="96px" height="75px" viewBox="0 0 96 75" version="1.1" xmlns="http://www.w3.org/2000/svg" xmlns:xlink="http://www.w3.org/1999/xlink" xmlns:sketch="http://www.bohemiancoding.com/sketch/ns">
    <!-- Generator: Sketch 3.4 (15588) - http://www.bohemiancoding.com/sketch -->
    <title>home-visits</title>
    <desc>Created with Sketch.</desc>
    <defs></defs>
    <g id="Page-1" stroke="none" stroke-width="1" fill="none" fill-rule="evenodd" sketch:type="MSPage">
        <g id="home-visits" sketch:type="MSLayerGroup" transform="translate(2.000000, 2.000000)" stroke="#396FC0" stroke-width="4">
            <rect id="Rectangle-path" sketch:type="MSShapeGroup" x="0.3164" y="1.004" width="63.7364" height="44.2504"></rect>
            <path d="M13.2212,56.9456 L4.264,56.9456 L4.264,45.2544 L64.0528,45.2544 L64.0528,12.804 L82.8848,12.804 C82.8848,12.804 89.856,19.0164 89.856,29.4304 L89.856,45.2548 L91.5656,45.2548 L91.5656,56.946 L83.3724,56.946" id="Shape" sketch:type="MSShapeGroup"></path>
            <path d="M67.44,56.9456 L29.1524,56.9456" id="Shape" sketch:type="MSShapeGroup"></path>
            <circle id="Oval" sketch:type="MSShapeGroup" cx="75.4068" cy="61.5708" r="9.214"></circle>
            <circle id="Oval" sketch:type="MSShapeGroup" cx="75.4068" cy="61.5708" r="2.508"></circle>
            <circle id="Oval" sketch:type="MSShapeGroup" cx="21.1868" cy="61.5708" r="9.214"></circle>
            <circle id="Oval" sketch:type="MSShapeGroup" cx="21.1864" cy="61.5708" r="2.508"></circle>
            <path d="M76.0784,32.894 L76.0784,12.804" id="Shape" sketch:type="MSShapeGroup"></path>
            <path d="M89.856,32.894 L64.0528,32.894" id="Shape" sketch:type="MSShapeGroup"></path>
            <path d="M80.5492,7.3524 C80.5492,7.3524 75.602,0.674 69.65,0.6836" id="Shape" sketch:type="MSShapeGroup"></path>
        </g>
    </g>
</svg>