<?xml version="1.0" encoding="UTF-8" standalone="no"?>
<svg width="22px" height="21px" viewBox="0 0 22 21" version="1.1" xmlns="http://www.w3.org/2000/svg" xmlns:xlink="http://www.w3.org/1999/xlink" xmlns:sketch="http://www.bohemiancoding.com/sketch/ns">
    <!-- Generator: Sketch 3.3.3 (12081) - http://www.bohemiancoding.com/sketch -->
    <title>monitor</title>
    <desc>Created with Sketch.</desc>
    <defs></defs>
    <g id="Page-1" stroke="none" stroke-width="1" fill="none" fill-rule="evenodd" sketch:type="MSPage">
        <g id="680x680-2" sketch:type="MSArtboardGroup" transform="translate(-528.000000, -531.000000)" fill="#231F1F">
            <g id="Row-7" sketch:type="MSLayerGroup" transform="translate(49.000000, 528.000000)">
                <path d="M499.523675,3 L480.476325,3 C479.661291,3 479,3.65548681 479,4.46434386 L479,17.7460111 C479,18.5538912 479.661291,19.2093781 480.476325,19.2093781 L485.68584,19.2093781 C486.173677,19.2093781 486.568875,19.6011071 486.568875,20.084663 L486.568875,21.2442201 C486.568875,21.727776 486.173677,22.119505 485.68584,22.119505 L485.599113,22.119505 C485.079738,22.119505 484.658917,22.536633 484.658917,23.0504722 L484.658917,23.0700098 C484.658917,23.5838489 485.079738,24 485.599113,24 L494.376249,24 C494.894638,24 495.315459,23.5838489 495.315459,23.0700098 L495.315459,23.0504722 C495.315459,22.536633 494.894638,22.119505 494.376249,22.119505 L494.309233,22.119505 C493.821395,22.119505 493.426197,21.727776 493.426197,21.2442201 L493.426197,20.084663 C493.426197,19.6011071 493.821395,19.2093781 494.309233,19.2093781 L499.523675,19.2093781 C500.338709,19.2093781 501,18.5538912 501,17.7460111 L501,4.46434386 C501,3.65548681 500.338709,3 499.523675,3 L499.523675,3 Z M489.999507,18.5157929 C489.569816,18.5157929 489.220938,18.1699772 489.220938,17.7440573 C489.220938,17.3181374 489.569816,16.9723217 489.999507,16.9723217 C490.429199,16.9723217 490.778076,17.3181374 490.778076,17.7440573 C490.778076,18.1699772 490.429199,18.5157929 489.999507,18.5157929 L489.999507,18.5157929 Z M499.072302,15.5050472 C499.072302,15.7981114 498.833804,16.0345164 498.53913,16.0345164 L481.435246,16.0345164 C481.141558,16.0345164 480.902074,15.7981114 480.902074,15.5050472 L480.902074,5.39042657 C480.902074,5.0983393 481.141558,4.86193422 481.435246,4.86193422 L498.53913,4.86193422 C498.833804,4.86193422 499.072302,5.0983393 499.072302,5.39042657 L499.072302,15.5050472 L499.072302,15.5050472 Z" id="monitor" sketch:type="MSShapeGroup"></path>
            </g>
        </g>
    </g>
</svg>