<?xml version="1.0" encoding="UTF-8" standalone="no"?>
<svg width="329px" height="243px" viewBox="0 0 329 243" version="1.1" xmlns="http://www.w3.org/2000/svg" xmlns:xlink="http://www.w3.org/1999/xlink" xmlns:sketch="http://www.bohemiancoding.com/sketch/ns">
    <!-- Generator: Sketch 3.4 (15588) - http://www.bohemiancoding.com/sketch -->
    <title>lab</title>
    <desc>Created with Sketch.</desc>
    <defs></defs>
    <g id="Page-1" stroke="none" stroke-width="1" fill="none" fill-rule="evenodd" sketch:type="MSPage">
        <g id="lab" sketch:type="MSLayerGroup" transform="translate(4.000000, 2.000000)">
            <g id="Group" sketch:type="MSShapeGroup">
                <g transform="translate(40.000000, 0.000000)">
                    <rect id="Rectangle-path" fill="#FFFFFF" x="0.5" y="0.5" width="48" height="144"></rect>
                    <path d="M0.5,176.5 C0.5,189.755 11.244,200.5 24.5,200.5 C37.754,200.5 48.5,189.755 48.5,176.5 L48.5,144.5 L0.5,144.5 L0.5,176.5 L0.5,176.5 Z" id="liquid-1" fill="#BCEBDD"></path>
                    <path d="M96.5,176.5 C96.5,189.755 107.244,200.5 120.5,200.5 C133.754,200.5 144.5,189.755 144.5,176.5 L144.5,112.5 L96.5,112.5 L96.5,176.5 L96.5,176.5 Z" id="liquid-2" fill="#BCEBDD"></path>
                    <rect id="Rectangle-path" fill="#FFFFFF" x="96.5" y="0.5" width="48" height="112"></rect>
                    <path d="M192.5,64.5 L192.5,176.5 C192.5,189.755 203.244,200.5 216.5,200.5 C229.754,200.5 240.5,189.755 240.5,176.5 L240.5,64.5 L192.5,64.5 L192.5,64.5 Z" id="liquid-3" fill="#BCEBDD"></path>
                </g>
                <path d="M40.5,0.5 L40.5,176.5 C40.5,189.755 51.244,200.5 64.5,200.5 C77.754,200.5 88.5,189.755 88.5,176.5 L88.5,0.5 L40.5,0.5 L40.5,0.5 Z" id="glas" stroke="#000000" stroke-width="5"></path>
                <rect id="glas" stroke="#000000" stroke-width="5" fill="#FFFFFF" x="32.5" y="0.5" width="64" height="8"></rect>
                <g transform="translate(40.000000, 32.000000)" id="Shape" stroke="#000000" stroke-width="5">
                    <path d="M0.5,128.5 L16.5,128.5"></path>
                    <path d="M0.5,112.5 L16.5,112.5"></path>
                    <path d="M0.5,96.5 L16.5,96.5"></path>
                    <path d="M0.5,80.5 L16.5,80.5"></path>
                    <path d="M0.5,64.5 L16.5,64.5"></path>
                    <path d="M0.5,48.5 L16.5,48.5"></path>
                    <path d="M0.5,32.5 L16.5,32.5"></path>
                    <path d="M0.5,16.5 L16.5,16.5"></path>
                    <path d="M0.5,0.5 L16.5,0.5"></path>
                </g>
                <path d="M136.5,0.5 L136.5,176.5 C136.5,189.755 147.244,200.5 160.5,200.5 C173.754,200.5 184.5,189.755 184.5,176.5 L184.5,0.5 L136.5,0.5 L136.5,0.5 Z" id="glas" stroke="#000000" stroke-width="5"></path>
                <rect id="glas" stroke="#000000" stroke-width="5" fill="#FFFFFF" x="128.5" y="0.5" width="64" height="8"></rect>
                <g transform="translate(136.000000, 32.000000)" id="Shape" stroke="#000000" stroke-width="5">
                    <path d="M0.5,128.5 L16.5,128.5"></path>
                    <path d="M0.5,112.5 L16.5,112.5"></path>
                    <path d="M0.5,96.5 L16.5,96.5"></path>
                    <path d="M0.5,80.5 L16.5,80.5"></path>
                    <path d="M0.5,64.5 L16.5,64.5"></path>
                    <path d="M0.5,48.5 L16.5,48.5"></path>
                    <path d="M0.5,32.5 L16.5,32.5"></path>
                    <path d="M0.5,16.5 L16.5,16.5"></path>
                    <path d="M0.5,0.5 L16.5,0.5"></path>
                </g>
                <path d="M232.5,0.5 L232.5,176.5 C232.5,189.755 243.244,200.5 256.5,200.5 C269.754,200.5 280.5,189.755 280.5,176.5 L280.5,0.5 L232.5,0.5 L232.5,0.5 Z" id="glas" stroke="#000000" stroke-width="5"></path>
                <rect id="glas" stroke="#000000" stroke-width="5" fill="#FFFFFF" x="224.5" y="0.5" width="64" height="8"></rect>
                <g transform="translate(232.000000, 32.000000)" id="Shape" stroke="#000000" stroke-width="5">
                    <path d="M0.5,128.5 L16.5,128.5"></path>
                    <path d="M0.5,112.5 L16.5,112.5"></path>
                    <path d="M0.5,96.5 L16.5,96.5"></path>
                    <path d="M0.5,80.5 L16.5,80.5"></path>
                    <path d="M0.5,64.5 L16.5,64.5"></path>
                    <path d="M0.5,48.5 L16.5,48.5"></path>
                    <path d="M0.5,32.5 L16.5,32.5"></path>
                    <path d="M0.5,16.5 L16.5,16.5"></path>
                    <path d="M0.5,0.5 L16.5,0.5"></path>
                </g>
                <path d="M320.5,240.5 L320.5,96.5 L0.5,96.5 L0.5,240.5" id="rack" stroke="#000000" stroke-width="8"></path>
            </g>
            <path d="M88.5,144.5 L40.5,144.5" id="Shape" stroke="#000000" stroke-width="5" sketch:type="MSShapeGroup"></path>
            <path d="M136.5,112.5 L184.5,112.5" id="Shape" stroke="#000000" stroke-width="5" sketch:type="MSShapeGroup"></path>
            <path d="M280.5,64.5 L232.5,64.5" id="Shape" stroke="#000000" stroke-width="5" sketch:type="MSShapeGroup"></path>
        </g>
    </g>
</svg>