<?xml version="1.0" encoding="UTF-8" standalone="no"?>
<svg width="10px" height="24px" viewBox="0 0 10 24" version="1.1" xmlns="http://www.w3.org/2000/svg" xmlns:xlink="http://www.w3.org/1999/xlink" xmlns:sketch="http://www.bohemiancoding.com/sketch/ns">
    <!-- Generator: Sketch 3.3.3 (12081) - http://www.bohemiancoding.com/sketch -->
    <title>medicin</title>
    <desc>Created with Sketch.</desc>
    <defs></defs>
    <g id="Page-1" stroke="none" stroke-width="1" fill="none" fill-rule="evenodd" sketch:type="MSPage">
        <g id="680x680-5" sketch:type="MSArtboardGroup" transform="translate(-375.000000, -210.000000)" fill="#000000">
            <g id="Row-3" sketch:type="MSLayerGroup" transform="translate(50.000000, 208.000000)">
                <g id="medicin" transform="translate(325.000000, 2.000000)" sketch:type="MSShapeGroup">
                    <path d="M5.511,7.904 C5.794,7.841 6.063,8.054 6.063,8.344 L6.063,19.566 C6.063,20.168 5.569,20.655 4.965,20.644 C4.371,20.634 3.906,20.124 3.906,19.53 L3.906,8.327 C3.906,8.032 4.183,7.816 4.468,7.889 C4.641,7.934 4.826,7.958 5.018,7.958 C5.189,7.958 5.354,7.94 5.511,7.904 L5.511,7.904 Z M9.372,1.531 C9.281,1.782 8.64,2.875 8.64,3.797 L8.64,19.599 C8.64,21.59 6.953,23.204 4.962,23.204 C2.971,23.204 1.356,21.59 1.356,19.599 L1.356,3.797 C1.356,2.875 0.715,1.782 0.624,1.531 C0.534,1.281 0.687,0.657 1.354,0.655 L8.642,0.655 C9.309,0.657 9.462,1.281 9.372,1.531 L9.372,1.531 Z M7.368,2.691 C7.368,2.274 7.03,1.936 6.613,1.936 L3.393,1.936 C2.975,1.936 2.637,2.274 2.637,2.691 L2.637,19.438 C2.637,20.676 3.527,21.803 4.759,21.927 C6.175,22.068 7.368,20.96 7.368,19.573 L7.368,2.691 L7.368,2.691 Z" id="testtube"></path>
                </g>
            </g>
        </g>
    </g>
</svg>