<?xml version="1.0" encoding="UTF-8" standalone="no"?>
<svg width="46px" height="35px" viewBox="0 0 46 35" version="1.1" xmlns="http://www.w3.org/2000/svg" xmlns:xlink="http://www.w3.org/1999/xlink" xmlns:sketch="http://www.bohemiancoding.com/sketch/ns">
    <!-- Generator: Sketch 3.4.4 (17249) - http://www.bohemiancoding.com/sketch -->
    <title>metal</title>
    <desc>Created with Sketch.</desc>
    <defs></defs>
    <g id="Page-1" stroke="none" stroke-width="1" fill="none" fill-rule="evenodd" sketch:type="MSPage">
        <g id="metal" sketch:type="MSLayerGroup" transform="translate(23.000000, 17.500000) scale(-1, 1) translate(-23.000000, -17.500000) " fill="#000000">
            <path d="M45.778,22.751 L39.791,13.45 C39.79,13.449 39.789,13.448 39.787,13.445 C39.784,13.441 39.779,13.438 39.777,13.433 C39.728,13.361 39.673,13.298 39.612,13.241 C39.594,13.225 39.576,13.212 39.557,13.196 C39.504,13.151 39.447,13.112 39.387,13.078 C39.374,13.071 39.365,13.06 39.351,13.053 L15.846,0.95 C15.506,0.773 15.098,0.781 14.763,0.968 L5.972,5.873 C5.96,5.879 5.951,5.89 5.94,5.897 C5.875,5.936 5.814,5.981 5.757,6.034 C5.745,6.046 5.731,6.055 5.718,6.067 C5.661,6.126 5.608,6.189 5.562,6.26 L0.275,14.605 C0.111,14.865 0.057,15.178 0.127,15.478 C0.195,15.777 0.382,16.036 0.644,16.197 L30.774,34.67 C30.794,34.682 30.816,34.686 30.837,34.696 C30.858,34.708 30.874,34.724 30.896,34.734 C30.934,34.752 30.974,34.759 31.013,34.773 C31.041,34.782 31.068,34.794 31.096,34.801 C31.187,34.823 31.278,34.837 31.37,34.837 C31.372,34.837 31.373,34.838 31.373,34.838 L31.373,34.838 L31.374,34.838 C31.374,34.838 31.375,34.837 31.376,34.837 C31.488,34.837 31.598,34.816 31.705,34.783 C31.737,34.773 31.766,34.759 31.797,34.747 C31.875,34.716 31.947,34.678 32.017,34.63 C32.036,34.618 32.055,34.614 32.073,34.601 L45.512,24.282 C45.985,23.918 46.101,23.253 45.778,22.751 L45.778,22.751 Z M15.343,3.27 L36.6,14.215 L30.534,18.402 L8.924,6.852 L15.343,3.27 L15.343,3.27 Z M6.93,8.387 L29.499,20.448 L30.109,31.572 L2.835,14.85 L6.93,8.387 L6.93,8.387 Z M32.399,31.458 L31.79,20.32 L38.504,15.686 L43.279,23.104 L32.399,31.458 L32.399,31.458 Z" id="Shape" sketch:type="MSShapeGroup"></path>
        </g>
    </g>
</svg>