<?xml version="1.0" encoding="UTF-8" standalone="no"?>
<svg width="55px" height="32px" viewBox="0 0 55 32" version="1.1" xmlns="http://www.w3.org/2000/svg" xmlns:xlink="http://www.w3.org/1999/xlink" xmlns:sketch="http://www.bohemiancoding.com/sketch/ns">
    <!-- Generator: Sketch 3.4.4 (17249) - http://www.bohemiancoding.com/sketch -->
    <title>open-box</title>
    <desc>Created with Sketch.</desc>
    <defs></defs>
    <g id="Page-1" stroke="none" stroke-width="1" fill="none" fill-rule="evenodd" sketch:type="MSPage">
        <g id="open-box" sketch:type="MSLayerGroup">
            <path d="M54.9939169,6.08217674 C54.992092,5.99562787 54.9598516,5.91123374 54.8990208,5.83186735 C54.8844214,5.81750239 54.8600891,5.80277831 54.8424481,5.78697686 C54.7840505,5.73095352 54.71592,5.6767258 54.627107,5.63183531 C54.617374,5.62608933 54.6112909,5.61711123 54.5991248,5.60992875 C54.5656678,5.59376817 54.5236945,5.59376817 54.4878043,5.58083971 C54.4312317,5.56108789 54.3850002,5.5341536 54.3229528,5.51978864 L31.7802606,0.549154066 C31.7620113,0.543767206 31.7407205,0.545562826 31.720038,0.541971587 C31.6573823,0.531197868 31.5965514,0.531197868 31.5320708,0.525811009 C31.4481242,0.52042415 31.3660026,0.517192034 31.2844892,0.524374513 C31.2589403,0.525811009 31.2352163,0.51862853 31.2114922,0.522219769 L1.15558316,4.11812787 C1.11969297,4.1231556 1.09171078,4.13572494 1.05703721,4.1411118 C1.00533099,4.1486534 0.959707865,4.16086362 0.910434885,4.17522857 C0.842304346,4.1935439 0.780865199,4.21832345 0.723075902,4.24525774 C0.683535857,4.26321394 0.645212429,4.28152926 0.609930542,4.3030767 C0.55031632,4.3389891 0.503476575,4.38244309 0.461503296,4.42769271 C0.446903895,4.44385329 0.420746634,4.45642263 0.408580466,4.4725832 C0.403713999,4.47940656 0.405538924,4.4829978 0.402497382,4.49018028 C0.360524104,4.54835836 0.33923331,4.61084592 0.33193361,4.67764298 C0.33193361,4.69021232 0.320984059,4.70314078 0.320984059,4.71535099 C0.320984059,4.71678749 0.319767442,4.71894223 0.319767442,4.71894223 L0.319767442,24.9045811 L0.319767442,24.9063768 L0.319767442,24.9121227 C0.319767442,24.9372614 0.33923331,24.9570132 0.344708086,24.9839475 C0.356874253,25.0378161 0.362957337,25.092403 0.398847532,25.1408847 C0.426829718,25.1825431 0.472452847,25.2130686 0.511992892,25.2475445 C0.547274778,25.2798657 0.571607114,25.3125459 0.616013626,25.3391211 C0.687794016,25.3825751 0.775998732,25.4134598 0.869678223,25.4439853 C0.895227176,25.4526043 0.915301352,25.4673284 0.944500155,25.4723561 L0.953624781,25.4763065 L0.958491248,25.4763065 L23.486584,31.2847772 C23.6210202,31.321767 23.7639727,31.3372093 23.900842,31.3372093 L23.9020587,31.3372093 L23.9020587,31.3372093 C23.9872218,31.3372093 24.0711684,31.3296677 24.1538983,31.3196122 L54.2122406,26.880122 C54.6751633,26.8133249 55,26.5687615 55,26.2857718 L55,6.09474608 C55,6.09115484 54.9939169,6.08576798 54.9939169,6.08217674 L54.9939169,6.08217674 Z M32.4560912,2.00899292 L50.4601945,5.97731255 L32.4560912,8.63590714 L32.4560912,2.00899292 L32.4560912,2.00899292 Z M30.3762848,8.94403549 L23.99148,9.88673585 L4.79570055,4.93800784 L30.3762848,1.87396231 L30.3762848,8.94403549 L30.3762848,8.94403549 Z" id="box" fill="#000000" sketch:type="MSShapeGroup"></path>
            <path d="M2.40018212,5.65697399 L22.8606347,10.9339413 L22.8606347,29.7854347 L2.40018212,24.5099039 L2.40018212,5.65697399 L2.40018212,5.65697399 Z" id="left" fill="#000000" sketch:type="MSShapeGroup"></path>
            <path d="M52.9208019,25.8063414 L24.9416577,29.936985 L24.9416577,11.0115121 L52.9208019,6.88015016 L52.9208019,25.8063414 L52.9208019,25.8063414 Z" id="right" fill="#000000" sketch:type="MSShapeGroup"></path>
            <path d="M24,9.5 L24,30.5" id="open" stroke="#F8F8F8" stroke-width="2" stroke-linecap="square" sketch:type="MSShapeGroup"></path>
        </g>
    </g>
</svg>