<?xml version="1.0" encoding="UTF-8" standalone="no"?>
<svg width="22px" height="22px" viewBox="0 0 22 22" version="1.1" xmlns="http://www.w3.org/2000/svg" xmlns:xlink="http://www.w3.org/1999/xlink" xmlns:sketch="http://www.bohemiancoding.com/sketch/ns">
    <!-- Generator: Sketch 3.3.3 (12081) - http://www.bohemiancoding.com/sketch -->
    <title>pen</title>
    <desc>Created with Sketch.</desc>
    <defs></defs>
    <g id="Page-1" stroke="none" stroke-width="1" fill="none" fill-rule="evenodd" sketch:type="MSPage">
        <g id="680x680-4" sketch:type="MSArtboardGroup" transform="translate(-50.000000, -290.000000)" fill="#231F1F">
            <g id="Row-4" sketch:type="MSLayerGroup" transform="translate(50.000000, 289.000000)">
                <path d="M6.57253187,8.78721928 L13.1725319,2.47521928 C13.5515319,2.11321928 14.1095319,2.01221928 14.5915319,2.22021928 L15.1935319,2.48021928 C15.6625319,2.68121928 16.2055319,2.59121928 16.5845319,2.25021928 C16.9215319,1.94721928 17.1655319,1.73521928 17.2925319,1.64021928 C18.4985319,0.732219276 19.9945319,0.810219276 20.9315319,1.74621928 C21.8675319,2.68321928 21.9455319,4.17921928 21.0375319,5.38621928 C20.1305319,6.59221928 8.61353187,18.5362193 8.27253187,18.8772193 C7.93053187,19.2192193 7.55053187,19.1082193 7.34453187,18.9012193 L3.77653187,15.3332193 C3.56953187,15.1272193 3.45853187,14.7472193 3.80053187,14.4062193 C4.02953187,14.1762193 9.48753187,8.91121928 13.4155319,5.20021928 C13.6255319,5.00221928 13.6265319,4.66421928 13.4285319,4.45421928 C13.2295319,4.24221928 12.8955319,4.23421928 12.6855319,4.43621928 L7.33453187,9.58221928 C7.12053187,9.78821928 6.77353187,9.77721928 6.56353187,9.56721928 C6.34753187,9.35121928 6.35053187,8.99921928 6.57253187,8.78721928 L6.57253187,8.78721928 Z M0.499531865,21.0002193 C0.588531865,21.1022193 0.561531865,21.2702193 0.465531865,21.3652193 L0.165531865,21.6662193 C-0.0394681349,21.8712193 -0.0674681349,22.2142193 0.157531865,22.4392193 C0.382531865,22.6642193 0.726531865,22.6372193 0.931531865,22.4322193 L1.23453187,22.1302193 C1.33253187,22.0322193 1.50253187,22.0232193 1.61053187,22.1092193 C1.69653187,22.1782193 1.80053187,22.2102193 1.90553187,22.1732193 C4.13253187,21.3932193 6.14253187,20.4472193 6.36353187,20.3402193 C6.59153187,20.2302193 6.74753187,19.8422193 6.48153187,19.5752193 C6.21453187,19.3092193 4.75153187,17.8462193 4.75153187,17.8462193 C4.75153187,17.8462193 3.28853187,16.3832193 3.02253187,16.1162193 C2.75553187,15.8502193 2.36753187,16.0062193 2.25753187,16.2342193 C2.14953187,16.4552193 1.19453187,18.4552193 0.413531865,20.6812193 C0.375531865,20.7912193 0.422531865,20.9122193 0.499531865,21.0002193 L0.499531865,21.0002193 Z" id="pen" sketch:type="MSShapeGroup"></path>
            </g>
        </g>
    </g>
</svg>