<?xml version="1.0" encoding="UTF-8" standalone="no"?>
<svg width="26px" height="48px" viewBox="0 0 26 48" version="1.1" xmlns="http://www.w3.org/2000/svg" xmlns:xlink="http://www.w3.org/1999/xlink" xmlns:sketch="http://www.bohemiancoding.com/sketch/ns">
    <!-- Generator: Sketch 3.2.2 (9983) - http://www.bohemiancoding.com/sketch -->
    <title>plug</title>
    <desc>Created with Sketch.</desc>
    <defs></defs>
    <g id="Page-1" stroke="none" stroke-width="1" fill="none" fill-rule="evenodd" sketch:type="MSPage">
        <g id="plug" sketch:type="MSLayerGroup" fill="#231F1F">
            <g id="Icons" sketch:type="MSShapeGroup">
                <g id="Automotive">
                    <g id="Sparking-Plug">
                        <path d="M21,44 C20.9012563,46.2619362 18.235,46 18,46 L16.451,46 C15.746,47.219 14.436,48 13,48 C11.564,48 10.254,47.219 9.549,46 L8,46 C6.346,46 5,44.654 5,43 L5,40 C5,39.447 5.447,39 6,39 C6.553,39 7,39.447 7,40 L7,43 C7,43.552 7.448,44 8,44 L10.184,44 C10.606,44 10.984,44.266 11.126,44.665 C11.409,45.464 12.162,46 13,46 C13.838,46 14.591,45.464 14.874,44.665 C15.016,44.266 15.394,44 15.816,44 L18,44 C18.552,44 19,43.552 19,43 L19,40 C19,39.447 19.447,39 20,39 C20.553,39 21,39.447 21,40 L21,44 Z M9.836,7.986 C10.378,8.083 10.896,7.709 10.986,7.164 L11.847,2 L14.153,2 L15.014,7.164 C15.095,7.653 15.519,8 15.999,8 C16.054,8 16.108,7.996 16.164,7.986 C16.709,7.895 17.077,7.38 16.986,6.836 L15.986,0.836 C15.906,0.353 15.489,0 15,0 L11,0 C10.511,0 10.094,0.353 10.014,0.836 L9.014,6.836 C8.923,7.38 9.291,7.895 9.836,7.986 L9.836,7.986 L9.836,7.986 Z M26,29 L26,35 C26,36.654 24.654,38 23,38 L3,38 C1.346,38 0,36.654 0,35 L0,29 C0,27.345 1.346,26 3,26 L5,26 L5,20 C5,19.734 5.105,19.48 5.293,19.293 L6.586,18 L5.293,16.707 C4.902,16.316 4.902,15.683 5.293,15.293 L6.586,14 L5.293,12.707 C4.902,12.316 4.902,11.683 5.293,11.293 L7.293,9.293 C7.48,9.105 7.734,9 8,9 L18,9 C18.266,9 18.519,9.105 18.707,9.293 L20.707,11.293 C21.098,11.683 21.098,12.316 20.707,12.707 L19.414,14 L20.707,15.293 C21.098,15.683 21.098,16.316 20.707,16.707 L19.414,18 L20.707,19.293 C20.894,19.48 21,19.734 21,20 L21,26 L23,26 C24.654,26 26,27.345 26,29 L26,29 L26,29 Z M7,26 L19,26 L19,20.414 L17.293,18.707 C16.902,18.316 16.902,17.683 17.293,17.293 L18.586,16 L17.293,14.707 C16.902,14.316 16.902,13.683 17.293,13.293 L18.586,12 L17.586,11 L8.414,11 L7.414,12 L8.707,13.293 C9.098,13.683 9.098,14.316 8.707,14.707 L7.414,16 L8.707,17.293 C9.098,17.683 9.098,18.316 8.707,18.707 L7,20.414 L7,26 L7,26 Z M24,29 C24,28.448 23.552,28 23,28 L3,28 C2.448,28 2,28.448 2,29 L2,35 C2,35.551 2.448,36 3,36 L23,36 C23.552,36 24,35.551 24,35 L24,29 L24,29 Z" id="Shape"></path>
                    </g>
                </g>
            </g>
        </g>
    </g>
</svg>