<?xml version="1.0" encoding="UTF-8" standalone="no"?>
<svg width="20px" height="27px" viewBox="0 0 20 27" version="1.1" xmlns="http://www.w3.org/2000/svg" xmlns:xlink="http://www.w3.org/1999/xlink" xmlns:sketch="http://www.bohemiancoding.com/sketch/ns">
    <!-- Generator: Sketch 3.3.3 (12081) - http://www.bohemiancoding.com/sketch -->
    <title>barcharteasel</title>
    <desc>Created with Sketch.</desc>
    <defs></defs>
    <g id="Page-1" stroke="none" stroke-width="1" fill="none" fill-rule="evenodd" sketch:type="MSPage">
        <g id="680x680" sketch:type="MSArtboardGroup" transform="translate(-450.000000, -368.000000)" fill="#000000">
            <g id="Row-5" sketch:type="MSLayerGroup" transform="translate(49.000000, 368.000000)">
                <path d="M420.743293,5.27110228 C420.730063,4.56504469 420.139805,4 419.417248,4 L402.560297,4 C401.836722,4 401.245447,4.56703078 401.233235,5.27308838 L401.000185,18.6881827 C400.987972,19.409136 401.583319,20 402.322159,20 L419.677776,20 C420.417634,20 421.013998,19.40715 420.99975,18.6861966 L420.743293,5.27110228 Z M411.000492,3 L412.281043,3 C412.742316,3 413,2.58162518 413,2.23243045 C413,1.88433382 412.865257,1.51756955 412.401033,1.38030747 C411.937792,1.24304539 411.763708,1.14641288 411.763708,0.715959004 C411.763708,0.286603221 411.389968,0 411.000492,0 C410.610032,0 410.236292,0.286603221 410.236292,0.715959004 C410.236292,1.14641288 410.062208,1.24304539 409.598967,1.38030747 C409.134743,1.51756955 409,1.88433382 409,2.23243045 C409,2.58162518 409.257684,3 409.718957,3 L411.000492,3 Z M420.23854,21 L401.76146,21 C401.341134,21 401,21.4194491 401,21.9390651 C401,22.457429 401.341134,22.8781302 401.76146,22.8781302 L402.738159,22.8781302 C403.137164,22.8781302 403.429565,23.3414023 403.332098,23.8184474 L402.918879,25.8267947 C402.814305,26.3276294 403.060003,26.840985 403.466115,26.9699499 C403.530078,26.9899833 403.59404,27 403.656988,27 C403.996091,27 404.305752,26.7182805 404.394081,26.293823 L404.903751,23.8222037 C405.018478,23.2662771 405.423575,22.8781302 405.888573,22.8781302 L416.074877,22.8781302 C416.535814,22.8781302 416.939895,23.2612688 417.057668,23.8109349 L417.586629,26.2825543 C417.675973,26.7070117 417.984619,26.9887312 418.323722,26.9887312 C418.386669,26.9887312 418.450632,26.9787145 418.514595,26.9586811 C418.921722,26.8297162 419.166404,26.3176127 419.061831,25.8155259 L418.634398,23.8259599 C418.530839,23.3476628 418.824255,22.8781302 419.226306,22.8781302 L420.23854,22.8781302 C420.658866,22.8781302 421,22.457429 421,21.9390651 C421,21.4194491 420.658866,21 420.23854,21 Z M408,13 C407.447715,13 407,13.4426603 407,13.9989566 L407,15.0010434 C407,15.5527519 407.443865,16 408,16 C408.552285,16 409,15.5573397 409,15.0010434 L409,13.9989566 C409,13.4472481 408.556135,13 408,13 Z M414,9 C413.447715,9 413,9.43788135 413,10.0029293 L413,14.9970707 C413,15.5509732 413.443865,16 414,16 C414.552285,16 415,15.5621186 415,14.9970707 L415,10.0029293 C415,9.44902676 414.556135,9 414,9 Z M411,11 C410.447715,11 410,11.4437166 410,11.9998075 L410,15.0001925 C410,15.5523709 410.443865,16 411,16 C411.552285,16 412,15.5562834 412,15.0001925 L412,11.9998075 C412,11.4476291 411.556135,11 411,11 Z" id="barcharteasel" sketch:type="MSShapeGroup"></path>
            </g>
        </g>
    </g>
</svg>