<?xml version="1.0" encoding="UTF-8" standalone="no"?>
<svg width="257px" height="257px" viewBox="0 0 257 257" version="1.1" xmlns="http://www.w3.org/2000/svg" xmlns:xlink="http://www.w3.org/1999/xlink" xmlns:sketch="http://www.bohemiancoding.com/sketch/ns">
    <!-- Generator: Sketch 3.4 (15588) - http://www.bohemiancoding.com/sketch -->
    <title>prototype</title>
    <desc>Created with Sketch.</desc>
    <defs></defs>
    <g id="Page-1" stroke="none" stroke-width="1" fill="none" fill-rule="evenodd" sketch:type="MSPage">
        <g id="prototype" sketch:type="MSLayerGroup" transform="translate(3.000000, 2.000000)">
            <g id="Group" sketch:type="MSShapeGroup">
                <circle id="Oval" fill="#FFFFFF" cx="218.753" cy="32.649" r="32"></circle>
                <path d="M0.946,250.635 L17.896,244.955 L6.581,233.641 L0.946,250.635 Z" id="tip" fill="#FBD764"></path>
                <path d="M23.485,182.661 L6.581,233.641 L17.896,244.955 L68.739,227.918" id="Shape" fill="#FFFFFF"></path>
                <path d="M68.739,227.918 L241.38,55.276 L196.126,10.021 L23.485,182.661" id="pen" fill="#BCEBDD"></path>
                <path d="M218.753,32.648 L46.112,205.289" id="Shape"></path>
                <path d="M196.126,10.021 C208.622,-2.475 228.884,-2.476 241.38,10.021 C253.878,22.519 253.878,42.779 241.38,55.276" id="Shape" stroke="#000000" stroke-width="5"></path>
                <path d="M196.126,10.021 L23.485,182.661 L6.581,233.641 L0.946,250.635 L17.896,244.955 L68.739,227.918 L241.38,55.276 L196.126,10.021 Z" id="Shape" stroke="#000000" stroke-width="5"></path>
                <path d="M218.753,32.648 L46.112,205.289" id="Shape" stroke="#000000" stroke-width="5"></path>
                <rect id="ruler" stroke="#000000" stroke-width="4.99995205" fill="#FBD764" transform="translate(125.416699, 125.985485) rotate(135.000000) translate(-125.416699, -125.985485) " x="93.4165062" y="-18.0131338" width="64.0003862" height="287.997238"></rect>
                <g transform="translate(46.000000, 12.000000)" id="Shape" stroke="#000000" stroke-width="5">
                    <path d="M11.532,0.85 L0.22,12.162"></path>
                    <path d="M22.847,12.163 L11.532,23.477"></path>
                    <path d="M34.159,23.477 L22.847,34.79"></path>
                    <path d="M45.474,34.791 L34.161,46.104"></path>
                    <path d="M56.788,46.104 L45.474,57.418"></path>
                    <path d="M68.101,57.418 L56.788,68.731"></path>
                    <path d="M79.415,68.731 L68.101,80.045"></path>
                    <path d="M90.729,80.045 L79.415,91.359"></path>
                    <path d="M102.042,91.359 L90.729,102.672"></path>
                    <path d="M113.356,102.673 L102.042,113.986"></path>
                    <path d="M124.669,113.986 L113.356,125.3"></path>
                    <path d="M135.983,125.301 L124.671,136.613"></path>
                    <path d="M147.298,136.613 L135.983,147.928"></path>
                    <path d="M158.61,147.928 L147.298,159.24"></path>
                    <path d="M169.925,159.241 L158.61,170.555"></path>
                    <path d="M181.237,170.555 L169.925,181.867"></path>
                    <path d="M192.552,181.869 L181.239,193.182"></path>
                </g>
                <path d="M215.925,239.123 L12.278,35.477" id="Shape" stroke="#000000" stroke-width="5"></path>
                <path d="M68.739,227.918 L23.485,182.661" id="Shape" stroke="#000000" stroke-width="5"></path>
                <path d="M17.896,244.955 L6.581,233.641" id="Shape" stroke="#000000" stroke-width="5"></path>
            </g>
        </g>
    </g>
</svg>