<?xml version="1.0" encoding="UTF-8" standalone="no"?>
<svg width="40px" height="40px" viewBox="0 0 40 40" version="1.1" xmlns="http://www.w3.org/2000/svg" xmlns:xlink="http://www.w3.org/1999/xlink" xmlns:sketch="http://www.bohemiancoding.com/sketch/ns">
    <!-- Generator: Sketch 3.1 (8751) - http://www.bohemiancoding.com/sketch -->
    <title>Screwdriver</title>
    <desc>Created with Sketch.</desc>
    <defs></defs>
    <g id="Icons" stroke="none" stroke-width="1" fill="none" fill-rule="evenodd" sketch:type="MSPage">
        <g id="Automotive" sketch:type="MSArtboardGroup" transform="translate(-1040.000000, -1039.000000)" fill="#231F1F">
            <g id="Screwdriver" sketch:type="MSLayerGroup" transform="translate(1040.000000, 1039.000000)">
                <path d="M39.8213396,4.35517053 L37.0213396,8.55517053 C36.9483396,8.66417053 36.8533396,8.75917053 36.7443396,8.83317053 L32.6263396,11.5781705 L25.5973396,18.6081705 C25.4013396,18.8031705 25.1453396,18.9011705 24.8903396,18.9011705 C24.6343396,18.9011705 24.3783396,18.8031705 24.1833396,18.6081705 C23.7923396,18.2171705 23.7923396,17.5841705 24.1833396,17.1941705 L31.2823396,10.0931705 C31.3293396,10.0461705 31.3803396,10.0041705 31.4353396,9.96817053 L35.4693396,7.28017053 L37.7023396,3.92817053 L36.0623396,2.28817053 L32.7103396,4.52117053 L30.0213396,8.55517053 C29.9853396,8.61017053 29.9433396,8.66117053 29.8963396,8.70717053 L22.7963396,15.8081705 C22.4053396,16.1991705 21.7723396,16.1991705 21.3823396,15.8081705 C20.9913396,15.4171705 20.9913396,14.7851705 21.3823396,14.3941705 L28.4123396,7.36417053 L31.1573396,3.24617053 C31.2303396,3.13617053 31.3253396,3.04117053 31.4353396,2.96817053 L35.6353396,0.16817053 C36.0303396,-0.0968294701 36.5593396,-0.0438294701 36.8963396,0.29317053 L39.6963396,3.09317053 C40.0333396,3.43017053 40.0863396,3.95817053 39.8213396,4.35517053 L39.8213396,4.35517053 Z M25.3963396,22.9941705 C25.5843396,23.1811705 25.6893396,23.4351705 25.6893396,23.7011705 C25.6893396,23.9661705 25.5843396,24.2201705 25.3963396,24.4081705 L23.2963396,26.5081705 C22.9893396,26.8141705 22.5223396,26.8871705 22.1423396,26.6961705 L21.1133396,26.1811705 C20.4993396,25.8721705 19.7433396,25.9641705 19.2233396,26.3931705 L18.1383396,28.9241705 C16.0843396,33.7201705 12.3113396,37.4941705 7.51333958,39.5501705 C6.83933958,39.8391705 6.12533958,39.9861705 5.39233958,39.9861705 C3.95333958,39.9861705 2.60133958,39.4261705 1.58233958,38.4091705 C0.0163395763,36.8421705 -0.432660424,34.5141705 0.439339576,32.4781705 C2.49533958,27.6821705 6.26933958,23.9081705 11.0653396,21.8521705 L13.5983396,20.7671705 C14.0323396,20.2381705 14.1203396,19.5001705 13.8093396,18.8771705 L13.2953396,17.8471705 C13.1033396,17.4621705 13.1783396,16.9981705 13.4823396,16.6941705 L15.5823396,14.5941705 C15.9733396,14.2041705 16.6053396,14.2041705 16.9963396,14.5941705 L25.3963396,22.9941705 L25.3963396,22.9941705 Z M23.2753396,23.7011705 L16.2893396,16.7151705 L15.4063396,17.5991705 L15.5983396,17.9841705 C16.3203396,19.4271705 16.0393396,21.1651705 14.8963396,22.3081705 C14.8073396,22.3981705 14.7003396,22.4701705 14.5833396,22.5201705 L11.8533396,23.6901705 C7.53033958,25.5431705 4.13033958,28.9441705 2.27733958,33.2651705 C1.72933958,34.5451705 2.01133958,36.0091705 2.99633958,36.9951705 C3.96233958,37.9611705 5.46833958,38.2501705 6.72633958,37.7121705 C11.0483396,35.8591705 14.4483396,32.4581705 16.3003396,28.1371705 L17.4703396,25.4081705 C17.5203396,25.2901705 17.5923396,25.1841705 17.6823396,25.0941705 C18.8003396,23.9781705 20.5953396,23.6851705 22.0083396,24.3921705 L22.3923396,24.5841705 L23.2753396,23.7011705 L23.2753396,23.7011705 Z" sketch:type="MSShapeGroup"></path>
            </g>
        </g>
    </g>
</svg>