<?xml version="1.0" encoding="UTF-8" standalone="no"?>
<svg width="263px" height="300px" viewBox="0 0 263 300" version="1.1" xmlns="http://www.w3.org/2000/svg" xmlns:xlink="http://www.w3.org/1999/xlink" xmlns:sketch="http://www.bohemiancoding.com/sketch/ns">
    <!-- Generator: Sketch 3.4 (15588) - http://www.bohemiancoding.com/sketch -->
    <title>special</title>
    <desc>Created with Sketch.</desc>
    <defs></defs>
    <g id="Page-1" stroke="none" stroke-width="1" fill="none" fill-rule="evenodd" sketch:type="MSPage">
        <g id="special" sketch:type="MSLayerGroup" transform="translate(2.000000, 2.000000)" stroke="#000000" stroke-width="5" fill="#FFFFFF">
            <path d="M11.223,13.209 C4.558,21.803 0.5,33.154 0.5,45.605 C0.5,58.055 4.558,69.406 11.223,78" id="Shape" sketch:type="MSShapeGroup"></path>
            <path d="M20.855,11.775 L20.855,79.434 L111.065,75.676 L111.065,15.534 L20.855,11.775 Z" id="Shape" sketch:type="MSShapeGroup"></path>
            <path d="M258.009,28.69 L190.352,25.871 L190.352,65.338 L258.009,62.52 L258.009,28.69 Z" id="Shape" sketch:type="MSShapeGroup"></path>
            <path d="M111.065,19.293 L111.065,71.916 L189.999,68.626 L189.999,22.583 L111.065,19.293 Z" id="Shape" sketch:type="MSShapeGroup"></path>
            <g id="Group" transform="translate(111.000000, 59.000000)" sketch:type="MSShapeGroup">
                <rect id="Rectangle-path" x="0.242" y="11.977" width="45.104" height="22.552"></rect>
                <circle id="Oval" cx="22.794" cy="11.977" r="11.276"></circle>
            </g>
            <path d="M134.499,93.528 L66.138,296.5" id="Shape" sketch:type="MSShapeGroup"></path>
            <path d="M134.499,93.528 L201.451,296.5" id="Shape" sketch:type="MSShapeGroup"></path>
            <path d="M134.499,93.528 L134.499,296.5" id="Shape" sketch:type="MSShapeGroup"></path>
            <rect id="Rectangle-path" sketch:type="MSShapeGroup" x="11.223" y="0.5" width="22.553" height="90.209"></rect>
            <rect id="Rectangle-path" sketch:type="MSShapeGroup" x="126.499" y="90.5" width="16" height="16"></rect>
        </g>
    </g>
</svg>