<?xml version="1.0" encoding="UTF-8" standalone="no"?>
<svg width="44px" height="38px" viewBox="0 0 44 38" version="1.1" xmlns="http://www.w3.org/2000/svg" xmlns:xlink="http://www.w3.org/1999/xlink" xmlns:sketch="http://www.bohemiancoding.com/sketch/ns">
    <!-- Generator: Sketch 3.1 (8751) - http://www.bohemiancoding.com/sketch -->
    <title>Hazard Triangle</title>
    <desc>Created with Sketch.</desc>
    <defs></defs>
    <g id="Icons" stroke="none" stroke-width="1" fill="none" fill-rule="evenodd" sketch:type="MSPage">
        <g id="Automotive" sketch:type="MSArtboardGroup" transform="translate(-198.000000, -562.000000)" fill="#231F1F">
            <g id="Hazard-Triangle" sketch:type="MSLayerGroup" transform="translate(198.000000, 562.000000)">
                <path d="M4.00341195,32.994 C4.00341195,32.442 4.45141195,31.994 5.00341195,31.994 C5.55541195,31.994 6.00341195,32.442 6.00341195,32.994 C6.00341195,33.546 5.55541195,33.994 5.00341195,33.994 C4.45141195,33.994 4.00341195,33.546 4.00341195,32.994 L4.00341195,32.994 Z M43.860412,34.182 C43.543412,35.479 42.741412,36.576 41.600412,37.269 C40.817412,37.746 39.921412,37.998 39.008412,37.998 C39.003412,37.998 38.998412,37.997 38.993412,37.997 L5.00841195,37.997 C5.00341195,37.997 4.99841195,37.998 4.99341195,37.998 C4.08141195,37.998 3.18441195,37.746 2.40041195,37.269 C0.0454119549,35.838 -0.705588045,32.756 0.726411955,30.4 L17.729412,2.404 C17.748412,2.373 17.779412,2.355 17.801412,2.327 C18.199412,1.698 18.727412,1.14 19.405412,0.728 C20.187412,0.252 21.084412,0 21.997412,0 C23.760412,0 25.358412,0.898 26.273412,2.404 L43.275412,30.4 C43.969412,31.541 44.177412,32.884 43.860412,34.182 L43.860412,34.182 Z M3.44041195,35.56 C3.91041195,35.846 4.44741195,35.997 4.99341195,35.997 L4.99741195,35.997 L5.00141195,35.997 C6.05641195,35.994 7.01241195,35.456 7.55941195,34.554 L20.831412,12.704 L17.729412,7.597 C17.582412,7.355 17.473412,7.101 17.371412,6.846 L2.43541195,31.438 C1.57641195,32.852 2.02641195,34.701 3.44041195,35.56 L3.44041195,35.56 Z M9.26841195,35.592 C9.18241195,35.734 9.08441195,35.866 8.98641195,35.997 L35.015412,35.997 C34.917412,35.866 34.819412,35.734 34.733412,35.592 L31.333412,29.995 L12.668412,29.995 L9.26841195,35.592 L9.26841195,35.592 Z M30.119412,27.995 L22.001412,14.63 L13.883412,27.995 L30.119412,27.995 L30.119412,27.995 Z M41.566412,31.438 L24.563412,3.442 C24.015412,2.539 23.055412,2 21.997412,2 C21.451412,2 20.914412,2.151 20.444412,2.437 C19.030412,3.296 18.580412,5.145 19.439412,6.559 L36.442412,34.554 C36.990412,35.456 37.946412,35.994 39.001412,35.997 L39.004412,35.997 L39.009412,35.997 C39.555412,35.997 40.091412,35.846 40.561412,35.561 C41.246412,35.144 41.728412,34.486 41.917412,33.708 C42.107412,32.929 41.982412,32.123 41.566412,31.438 L41.566412,31.438 Z M39.003412,31.994 C38.451412,31.994 38.003412,32.442 38.003412,32.994 C38.003412,33.546 38.451412,33.994 39.003412,33.994 C39.555412,33.994 40.003412,33.546 40.003412,32.994 C40.003412,32.442 39.555412,31.994 39.003412,31.994 L39.003412,31.994 Z M22.003412,3.994 C21.451412,3.994 21.003412,4.442 21.003412,4.994 C21.003412,5.546 21.451412,5.994 22.003412,5.994 C22.555412,5.994 23.003412,5.546 23.003412,4.994 C23.003412,4.442 22.555412,3.994 22.003412,3.994 L22.003412,3.994 Z" sketch:type="MSShapeGroup"></path>
            </g>
        </g>
    </g>
</svg>