<?xml version="1.0" encoding="UTF-8" standalone="no"?>
<svg width="22px" height="23px" viewBox="0 0 22 23" version="1.1" xmlns="http://www.w3.org/2000/svg" xmlns:xlink="http://www.w3.org/1999/xlink" xmlns:sketch="http://www.bohemiancoding.com/sketch/ns">
    <!-- Generator: Sketch 3.2.2 (9983) - http://www.bohemiancoding.com/sketch -->
    <title>wrench</title>
    <desc>Created with Sketch.</desc>
    <defs></defs>
    <g id="Page-1" stroke="none" stroke-width="1" fill="none" fill-rule="evenodd" sketch:type="MSPage">
        <g id="680x680" sketch:type="MSArtboardGroup" transform="translate(-530.000000, -132.000000)" fill="#231F1F">
            <g id="Row-2" sketch:type="MSLayerGroup" transform="translate(48.000000, 129.000000)">
                <path d="M498.952385,24.5291142 L490.044057,15.1488345 C489.929386,15.0284773 489.754062,14.9773018 489.622333,15.0227912 C487.570574,15.7506205 485.210815,15.2227547 483.669864,13.6827512 C482.598969,12.6118565 482.00666,11.1884194 482.000026,9.67400368 C481.993392,8.65238906 483.250035,8.19465264 483.933323,8.87888803 L485.972761,10.9192742 C486.160405,11.1050223 486.26939,11.1306101 486.359421,11.1306101 C486.564123,11.1306101 486.961207,10.9780312 487.690931,10.2483065 L488.339154,9.59913582 C489.049925,8.88836498 489.230935,8.51023489 489.255575,8.31785292 C489.271686,8.20223419 489.238516,8.11125553 489.009174,7.88191347 L486.991533,5.86332429 C486.289291,5.16203039 486.772615,3.9300276 487.779067,3.9300276 C489.289692,3.94992919 490.69607,4.54318592 491.75275,5.59986523 C493.31455,7.16071799 493.831991,9.4304462 493.10511,11.5210602 C493.057725,11.6546851 493.108901,11.822427 493.230205,11.937098 L502.664504,20.7970935 C503.741085,21.8082834 503.763829,23.5046565 502.722313,24.545225 C501.620144,25.6483414 499.941778,25.5715781 498.952385,24.5291142 L498.952385,24.5291142 Z M490.731135,14.495873 L499.638515,23.8761527 C500.288634,24.5594404 501.363319,24.5660743 502.021019,23.9074267 C502.75643,23.1710681 502.671138,22.1039641 502.015333,21.4879627 L492.581035,12.6270196 C492.184898,12.2545757 492.038953,11.6973313 492.209538,11.2092687 C492.817011,9.4645632 492.38581,7.57201738 491.08273,6.26988521 C490.201374,5.38852937 489.029076,4.89478056 487.78191,4.87772206 C487.622697,4.87772206 487.549725,5.08242406 487.661553,5.19330431 L489.679194,7.21189349 C489.873472,7.40617085 490.279085,7.81083639 490.19474,8.44294858 C490.127454,8.95375589 489.761644,9.51763409 489.009174,10.2691558 L488.360951,10.9183265 C487.569626,11.7096514 486.933723,12.0783045 486.359421,12.0783045 C485.793647,12.0783045 485.424046,11.7096514 485.302741,11.5892942 L483.263303,9.54890801 C483.157161,9.44371393 482.947721,9.50247098 482.947721,9.6702129 C482.953407,10.9325419 483.447156,12.1200031 484.339884,13.0127312 C485.625905,14.2968572 487.593319,14.7365874 489.305803,14.130063 C489.814715,13.950001 490.370064,14.1158476 490.731135,14.495873 Z M501.278027,23.2080281 C501.000352,23.4857026 500.54925,23.4857026 500.271575,23.2080281 C499.992953,22.9303537 499.992953,22.4792511 500.271575,22.2006289 C500.54925,21.9229545 501.000352,21.9229545 501.278027,22.2006289 C501.556649,22.4792511 501.556649,22.9303537 501.278027,23.2080281 Z" id="wrench" sketch:type="MSShapeGroup"></path>
            </g>
        </g>
    </g>
</svg>