<svg width="27" height="32" viewBox="0 0 27 32" xmlns="http://www.w3.org/2000/svg"><title>Apple</title><desc>Created with Sketch.</desc><g fill="none" fill-rule="evenodd"><path d="M12.848 8.82c.29.04.584.06.877.06 1.66 0 3.214-.64 4.378-1.802 1.38-1.38 2.015-3.296 1.742-5.255-.062-.443-.41-.79-.853-.853-1.94-.27-3.887.374-5.255 1.742-1.38 1.38-2.015 3.296-1.742 5.255.062.443.41.79.853.853" fill="#88C057"/><path d="M20.734 10.15c-2.262-.62-4.714-.1-6.814 1.425-2.1-1.526-4.553-2.048-6.815-1.426-4.718 1.3-7.303 7.174-5.76 13.093C2.67 28.34 6.564 31.9 10.808 31.9c.65 0 1.298-.087 1.924-.26.405-.11.8-.26 1.186-.442.385.183.782.33 1.185.443.626.173 1.274.26 1.925.26 4.245 0 8.138-3.56 9.466-8.657 1.542-5.92-1.043-11.793-5.762-13.094" fill="#ED7161"/></g></svg>