<svg width="74" height="66" viewBox="0 0 74 66" version="1.1" xmlns="http://www.w3.org/2000/svg"><title>atom</title><desc>Created with Sketch.</desc><g id="Page-1" stroke="none" stroke-width="1" fill="none" fill-rule="evenodd"><g id="atom" transform="translate(-1 -1)"><path d="M63.69 24.626c-2.037-.662-4.275-1.233-6.662-1.714.777-2.316 1.418-4.558 1.867-6.66C60.528 8.594 59.7 3.562 56.5 1.7c-.8-.468-1.723-.703-2.738-.703-1.504 0-3.21.534-5.057 1.532-1.932 1.195-4.414 3.02-6.078 4.506-1.514 1.39-3.064 2.993-4.627 4.786C32.127 5.082 26.397.998 22.238.998c-1.016 0-1.938.235-2.74.703-3.196 1.862-4.024 6.896-2.393 14.553.448 2.103 1.09 4.344 1.867 6.66-2.388.48-4.625 1.05-6.66 1.713C4.91 27.033 1 30.27 1 33.994c0 2.555 1.844 4.882 5.393 6.87 2.124 1.08 4.147 1.938 7.218 2.897 1.677.497 3.474.933 5.363 1.313-.778 2.316-1.42 4.557-1.867 6.658-1.63 7.663-.803 12.694 2.396 14.556.802.465 1.722.7 2.737.7 4.16 0 9.89-4.08 15.76-10.823 5.874 6.742 11.603 10.826 15.763 10.826 1.016 0 1.936-.237 2.736-.702 2.437-1.418 3.493-4.678 3.14-9.533-.05-.863-.945-6.035-1.355-7.55-.354-1.337-.78-2.72-1.256-4.13 2.388-.48 4.624-1.053 6.66-1.715 7.4-2.406 11.312-5.644 11.312-9.367 0-3.723-3.91-6.96-11.312-9.367zM44.09 8.93c1.894-1.638 3.13-2.57 5.966-4.415 1.43-.75 2.686-1.136 3.707-1.136.605 0 1.113.123 1.56.382 2.128 1.24 2.6 5.724 1.265 11.994-.45 2.115-1.105 4.38-1.904 6.724-2.98-.503-6.156-.87-9.46-1.086-1.86-2.812-3.767-5.407-5.673-7.735 1.564-1.812 3.088-3.39 4.54-4.73zm2.893 30.292c-1.02 1.78-2.05 3.467-3.082 5.068-1.9.104-3.868.16-5.9.16-2.032 0-4-.057-5.9-.16-1.032-1.602-2.063-3.287-3.083-5.068-1.002-1.747-1.93-3.497-2.807-5.24.86-1.706 1.794-3.447 2.807-5.216 1.02-1.78 2.05-3.467 3.083-5.068 1.9-.104 3.868-.16 5.9-.16 2.032 0 4 .057 5.9.16 1.032 1.602 2.063 3.287 3.083 5.068 1.014 1.77 1.947 3.51 2.807 5.217-.877 1.742-1.805 3.492-2.807 5.24zm4.102-2.577c1.068 2.28 1.994 4.48 2.783 6.583-2.197.36-4.55.652-7.04.86.745-1.192 1.48-2.417 2.202-3.677.72-1.255 1.397-2.51 2.055-3.765zm-8.816 10.1C40.834 48.83 39.405 50.75 38 52.48c-1.405-1.73-2.834-3.647-4.267-5.735 1.407.053 2.83.084 4.266.084 1.438 0 2.86-.032 4.27-.085zM29.172 44.09c-2.49-.21-4.843-.5-7.04-.864.788-2.1 1.715-4.3 2.783-6.58.658 1.255 1.337 2.51 2.057 3.766.72 1.257 1.456 2.482 2.2 3.677zm-4.25-12.76c-1.047-2.23-1.982-4.43-2.788-6.57 2.196-.36 4.548-.653 7.037-.86-.744 1.194-1.48 2.42-2.2 3.678-.716 1.25-1.393 2.5-2.05 3.753zm8.81-10.087c1.433-2.088 2.862-4.004 4.268-5.738 1.405 1.734 2.835 3.65 4.27 5.738-1.41-.054-2.833-.084-4.27-.084-1.437 0-2.86.03-4.267.083zm15.297 6.333c-.72-1.26-1.457-2.482-2.2-3.678 2.487.208 4.84.5 7.036.86-.807 2.14-1.742 4.34-2.787 6.57-.657-1.25-1.333-2.5-2.05-3.752zm-29.614-11.82C18.08 9.483 18.553 5 20.682 3.76c.444-.258.955-.382 1.558-.382 3.117 0 8.383 3.538 14.213 10.278-1.904 2.33-3.81 4.923-5.67 7.735-3.305.218-6.482.585-9.46 1.088-.8-2.344-1.456-4.607-1.907-6.723zM14.1 41.41c-2.79-1-4.03-1.48-6.448-2.6-2.76-1.523-4.29-3.2-4.29-4.817 0-3.277 6.252-6.8 16.406-8.806 1.057 2.854 2.327 5.81 3.795 8.806-1.468 2.995-2.738 5.95-3.795 8.806-2.055-.406-3.953-.873-5.668-1.39zm8.14 23.198c-.604 0-1.114-.125-1.56-.383-2.814-1.64-2.717-8.855.638-18.72 2.98.505 6.158.872 9.465 1.09 1.86 2.81 3.766 5.405 5.67 7.733-5.832 6.743-11.098 10.28-14.214 10.28zm33.74-14.84c.22 1.106.99 4.538 1.288 7.27.252 3.735-.414 6.294-1.95 7.188-.444.258-.952.383-1.556.383-3.115 0-8.38-3.538-14.213-10.28 1.903-2.328 3.81-4.924 5.67-7.734 3.306-.217 6.483-.584 9.464-1.088.504 1.48.938 2.907 1.295 4.26zm.253-6.968c-1.06-2.854-2.328-5.812-3.795-8.806 1.467-2.996 2.736-5.952 3.795-8.806 10.154 2.005 16.406 5.528 16.406 8.806 0 3.277-6.252 6.8-16.407 8.806z" id="Shape" fill="#000"/><path d="M38 27c3.866 0 7 3.134 7 7 0 3.867-3.134 7-7 7s-7-3.134-7-7 3.134-7 7-7z" id="Shape" fill="#324D5B"/><path d="M40 30c1.105 0 2 .896 2 2s-.895 2-2 2c-1.104 0-2-.896-2-2s.896-2 2-2z" id="Shape" fill="#6E818B"/><path d="M39 40c-3.866 0-7-3.133-7-7 0-1.677.593-3.217 1.578-4.422C32.005 29.86 31 31.812 31 34c0 3.867 3.134 7 7 7 2.188 0 4.14-1.005 5.423-2.577C42.22 39.41 40.68 40 39 40z" id="Shape" fill="#2D4552"/></g></g></svg>