<svg width="21" height="21" viewBox="0 0 21 21" version="1.1" xmlns="http://www.w3.org/2000/svg"><title>capsule</title><desc>Created with Sketch.</desc><g id="Page-1" stroke="none" stroke-width="1" fill="none" fill-rule="evenodd"><g id="680x680-4" transform="translate(-451 -611)" fill="#231F1F"><g id="Row-8" transform="translate(49 609)"><path d="M412.208 3.75l-8.458 8.458c-2.333 2.333-2.333 6.115 0 8.448s6.115 2.333 8.448 0l8.458-8.458c2.333-2.333 2.333-6.115 0-8.448-2.332-2.333-6.115-2.333-8.448 0zm2.262 10.72c.483.483.483 1.266 0 1.75l-3.347 3.346c-1.836 1.837-4.88 1.73-6.576-.323-1.478-1.79-1.213-4.454.428-6.095l3.212-3.21c.483-.485 1.267-.485 1.75 0l4.533 4.532z" id="capsule"/></g></g></g></svg>