<svg width="261" height="293" viewBox="0 0 261 293" version="1.1" xmlns="http://www.w3.org/2000/svg"><title>cnc</title><desc>Created with Sketch.</desc><g id="Page-1" stroke="none" stroke-width="1" fill="none" fill-rule="evenodd"><g id="cnc" transform="translate(2 2)" stroke="#000" stroke-width="5"><path id="shell" fill="#BCEBDD" d="M.5.5h256v288H.5z"/><path d="M48.5 224.5h-32v-208h224v208h-32" id="background" fill="#fff"/><path id="Rectangle-path" fill="#fff" d="M152.5 88.5h16v16h-16z"/><path d="M16.5 64.5h224M240.5 80.5h-224" id="Shape"/><path id="Rectangle-path" fill="#fff" d="M80.5 16.5h32v208h-32z"/><path d="M208.5 224.5h-160v-16h160v16z" id="Shape" fill="#fff"/><circle id="Oval" fill="#fff" cx="32.5" cy="256.5" r="16"/><circle id="Oval" fill="#FBD764" cx="72.5" cy="248.5" r="8"/><path id="Rectangle-path" fill="#fff" d="M144.5 48.5h32v48h-32z"/><path id="object" fill="#FBD764" d="M64.5 112.5h128v96h-128z"/><path d="M136.5 40.5c0 4.418-3.582 8-8 8M136.5 40.5c0-4.418 3.582-8 8-8s8 3.582 8 8M152.5 40.5c0-4.418 3.582-8 8-8s8 3.582 8 8M152.5 40.5v8M168.5 40.5v8M128.5 48.5h-16M160.5 104.5v8" id="Shape"/></g></g></svg>