<svg width="42" height="35" viewBox="0 0 42 35" version="1.1" xmlns="http://www.w3.org/2000/svg"><title>Desktop (over)</title><desc>Created with Sketch.</desc><g id="Icons" stroke="none" stroke-width="1" fill="none" fill-rule="evenodd"><g id="Design-&-Development" transform="translate(-318 -402)" fill="#231F1F"><g id="Desktop-(over)" transform="translate(319 402)"><path d="M3.957 28h16v3h-16v-3zm15-5v3h3v5h3v-8h-6zm-5 3h3v-3h-3v3zm-5 0h3v-3h-3v3zm-5 0h3v-3h-3v3zm25-4v10c0 1.654-1.346 3-3 3h-23c-1.655 0-3-1.346-3-3V22c0-1.654 1.345-3 3-3h23c1.654 0 3 1.346 3 3zm-2 0c0-.55-.45-1-1-1h-23c-.552 0-1 .45-1 1v10c0 .55.448 1 1 1h23c.55 0 1-.45 1-1V22zm14 1v8c0 2.206-1.795 4-4 4h-2c-2.206 0-4-1.794-4-4v-8c0-2.206 1.794-4 4-4h2c2.205 0 4 1.794 4 4zm-2 0c0-1.103-.897-2-2-2h-2c-1.104 0-2 .897-2 2v8c0 1.103.896 2 2 2h2c1.103 0 2-.897 2-2v-8zM27.942 7.833c-.09-.544-.606-.914-1.152-.82-.545.093-.912.61-.82 1.154l.95 5.592c.076.296.01.606-.18.85-.192.247-.486.39-.803.39H14.984c-.317 0-.61-.143-.804-.39-.19-.244-.255-.554-.164-.93l.927-5.514c.09-.545-.276-1.06-.82-1.152-.55-.092-1.062.276-1.153.82l-.91 5.437c-.226.9-.03 1.836.542 2.57.575.737 1.443 1.16 2.382 1.16h10.953c.94 0 1.807-.423 2.382-1.16.57-.734.767-1.67.557-2.492l-.935-5.515zM40.957 2v2c0 1.103-.897 2-2 2h-37c-1.104 0-2-.897-2-2V2c0-1.103.896-2 2-2h37c1.103 0 2 .897 2 2zm-2 2V2h-37v2h37z"/></g></g></g></svg>