<svg width="25" height="25" viewBox="0 0 25 25" xmlns="http://www.w3.org/2000/svg"><title>cog</title><desc>Created with Sketch.</desc><g fill="none" fill-rule="evenodd"><g transform="translate(-608 -131)" fill="#231F1F"><g transform="translate(48 129)"><path d="M573.797 26.28h-1.76c-.847 0-1.537-.69-1.537-1.536v-.342c0-.44-.288-.836-.717-.984-.38-.132-.757-.29-1.12-.47-.406-.2-.906-.124-1.216.184l-.245.245c-.582.582-1.593.58-2.173 0l-1.246-1.244c-.598-.6-.598-1.573 0-2.173l.26-.26c.313-.313.39-.8.187-1.21-.172-.355-.328-.728-.457-1.107-.15-.43-.546-.72-.987-.72h-.368c-.847 0-1.536-.69-1.536-1.538v-1.76c0-.847.69-1.536 1.536-1.536h.368c.44 0 .838-.29.987-.722.13-.38.285-.752.458-1.107.203-.41.127-.896-.185-1.21l-.26-.26c-.6-.598-.6-1.573 0-2.172l1.244-1.245c.6-.6 1.57-.6 2.172 0l.245.246c.31.307.81.383 1.215.183.364-.18.74-.338 1.12-.47.43-.148.718-.544.718-.984v-.343c0-.847.69-1.537 1.536-1.537h1.76c.848 0 1.537.69 1.537 1.537v.31c0 .444.29.84.723.987.387.132.773.29 1.148.475.403.196.902.12 1.21-.188l.218-.22c.6-.6 1.57-.6 2.173 0l1.244 1.246c.6.6.6 1.57 0 2.173l-.205.205c-.315.314-.39.802-.185 1.212.188.38.35.77.486 1.163.147.43.542.72.984.72h.285c.848 0 1.537.688 1.537 1.535v1.76c0 .848-.69 1.537-1.537 1.537h-.285c-.442 0-.837.29-.984.718-.134.394-.297.785-.485 1.163-.204.412-.13.9.185 1.213l.204.204c.6.6.6 1.57 0 2.174l-1.245 1.244c-.582.58-1.593.58-2.173 0l-.22-.22c-.306-.306-.805-.383-1.208-.186-.375.184-.76.343-1.147.475-.433.146-.724.543-.724.986v.31c0 .848-.69 1.538-1.536 1.538zm-5.62-4.447c.318 0 .64.076.93.22.325.16.664.302 1.004.42.83.288 1.39 1.063 1.39 1.93v.34c0 .297.24.538.536.538h1.76c.297 0 .537-.24.537-.536v-.31c0-.874.563-1.65 1.402-1.935.347-.118.693-.26 1.03-.426.78-.382 1.753-.225 2.355.378l.22.22c.203.203.556.2.758-.002l1.244-1.244c.21-.21.21-.55 0-.758l-.204-.205c-.62-.618-.77-1.57-.372-2.364.167-.34.313-.69.434-1.043.285-.834 1.06-1.395 1.93-1.395h.285c.296 0 .537-.24.537-.537v-1.76c0-.295-.24-.536-.537-.536h-.285c-.87 0-1.645-.56-1.93-1.396-.12-.353-.267-.703-.435-1.042-.396-.795-.246-1.746.373-2.364l.204-.204c.21-.21.21-.55 0-.76l-1.244-1.244c-.202-.2-.555-.204-.76 0l-.218.22c-.602.602-1.576.76-2.355.376-.337-.164-.683-.307-1.03-.424-.84-.285-1.402-1.062-1.402-1.934v-.31c0-.297-.24-.538-.536-.538h-1.76c-.297 0-.537.24-.537.537v.342c0 .865-.56 1.64-1.39 1.93-.34.116-.678.258-1.004.42-.78.387-1.757.232-2.366-.374l-.245-.246c-.203-.2-.555-.204-.76 0l-1.244 1.245c-.208.21-.208.55 0 .76l.262.26c.615.614.767 1.56.378 2.356-.156.32-.295.654-.412.993-.286.835-1.063 1.396-1.932 1.396h-.368c-.296 0-.536.24-.536.535v1.76c0 .296.24.537.536.537h.368c.87 0 1.646.56 1.932 1.396.117.34.256.673.412.992.39.795.237 1.742-.378 2.357l-.26.26c-.21.21-.21.55 0 .76l1.244 1.244c.204.205.556.203.76 0l.244-.244c.383-.383.892-.593 1.436-.593zm4.782-1.13c-1.97 0-3.808-.88-5.04-2.418-1.235-1.537-1.693-3.546-1.257-5.512.53-2.398 2.425-4.29 4.823-4.823 2.458-.542 4.972.338 6.51 2.256 1.235 1.537 1.694 3.545 1.258 5.51-.53 2.4-2.425 4.293-4.823 4.825-.488.11-.983.164-1.47.164zm-.002-11.916c-.416 0-.838.047-1.255.14-1.99.44-3.623 2.073-4.063 4.063-.37 1.668.016 3.37 1.06 4.67 1.302 1.623 3.423 2.368 5.514 1.904 1.99-.44 3.623-2.074 4.063-4.064.37-1.667-.016-3.37-1.06-4.67-1.042-1.298-2.595-2.043-4.26-2.043z"/></g></g></g></svg>