<svg width="60" height="50" viewBox="0 0 60 50" xmlns="http://www.w3.org/2000/svg"><title>Gears</title><desc>Created with Sketch.</desc><g fill="none" fill-rule="evenodd"><g transform="translate(-1032 -393)" fill="#231F1F"><g transform="translate(1032 393)"><path d="M31.207 27.015c1.192-1.74 2.05-3.727 2.48-5.867C35.034 20.72 36 19.452 36 18c0-1.452-.965-2.72-2.314-3.148-.43-2.14-1.287-4.126-2.48-5.866.403-1.17.14-2.51-.77-3.42-.89-.89-2.25-1.156-3.416-.77-1.742-1.193-3.73-2.052-5.872-2.48C20.718.965 19.45 0 18 0c-1.45 0-2.72.965-3.148 2.315-2.143.43-4.13 1.288-5.873 2.482-1.166-.386-2.526-.12-3.415.768-.91.91-1.174 2.25-.772 3.42-1.192 1.74-2.05 3.727-2.48 5.867C.966 15.28 0 16.548 0 18c0 1.452.965 2.72 2.314 3.148.43 2.14 1.287 4.126 2.48 5.867-.403 1.17-.14 2.51.77 3.42.625.624 1.456.968 2.34.968.377 0 .743-.066 1.09-.188 1.74 1.188 3.722 2.043 5.858 2.47C15.282 35.036 16.548 36 18 36c1.45 0 2.72-.965 3.148-2.314 2.136-.428 4.118-1.283 5.857-2.47.347.12.714.187 1.092.187.882 0 1.714-.344 2.338-.968.91-.91 1.174-2.25.772-3.42zM18 32c-7.72 0-14-6.28-14-14S10.28 4 18 4s14 6.28 14 14-6.28 14-14 14zm39.59-.18c-.313-1.238-.8-2.403-1.44-3.47.713-1.273.518-2.906-.538-3.962-1.034-1.035-2.7-1.232-3.96-.536-1.07-.64-2.234-1.13-3.47-1.442-.398-1.402-1.69-2.418-3.182-2.418s-2.784 1.016-3.18 2.418c-1.238.313-2.403.802-3.472 1.442-1.26-.695-2.926-.498-3.96.536-1.057 1.056-1.25 2.69-.537 3.962-.64 1.068-1.127 2.233-1.44 3.47-1.402.396-2.418 1.688-2.418 3.18 0 1.492 1.016 2.784 2.418 3.18.313 1.238.8 2.403 1.44 3.47-.713 1.273-.52 2.906.538 3.962.627.627 1.46.973 2.346.973.577 0 1.127-.153 1.62-.432 1.067.638 2.23 1.125 3.465 1.437.396 1.402 1.69 2.418 3.18 2.418 1.49 0 2.784-1.016 3.18-2.418 1.236-.312 2.4-.8 3.465-1.437.494.28 1.044.432 1.62.432.886 0 1.72-.346 2.347-.973 1.057-1.056 1.25-2.69.538-3.962.64-1.068 1.127-2.233 1.44-3.47 1.402-.396 2.418-1.688 2.418-3.18 0-1.492-1.016-2.784-2.418-3.18zM45 46c-6.065 0-11-4.934-11-11 0-6.065 4.935-11 11-11s11 4.935 11 11c0 6.066-4.935 11-11 11zM18 12c-3.31 0-6 2.692-6 6 0 3.31 2.69 6 6 6s6-2.69 6-6c0-3.308-2.69-6-6-6zm0 10c-2.206 0-4-1.794-4-4 0-2.205 1.794-4 4-4s4 1.795 4 4c0 2.206-1.794 4-4 4zm27 8c-2.757 0-5 2.243-5 5s2.243 5 5 5 5-2.243 5-5-2.243-5-5-5zm0 8c-1.654 0-3-1.346-3-3s1.346-3 3-3 3 1.346 3 3-1.346 3-3 3z"/></g></g></g></svg>