<svg width="24" height="24" viewBox="0 0 24 24" version="1.1" xmlns="http://www.w3.org/2000/svg"><title>compose</title><desc>Created with Sketch.</desc><g id="Page-1" stroke="none" stroke-width="1" fill="none" fill-rule="evenodd"><g id="680x680-3" transform="translate(-449 -449)" fill="#231F1F"><g id="Row-6" transform="translate(59 449)"><path d="M400.324 16.277l-3.707 1.273c-.366.125-.717-.225-.59-.592l1.27-3.707c.09-.26.423-.336.618-.14l2.552 2.55c.195.196.118.528-.143.617zm9.937-9.793l-8.473 8.474c-.258.258-.668.265-.917.016l-2.382-2.382c-.25-.25-.242-.66.015-.917l8.474-8.474c.258-.257.668-.264.917-.015l2.383 2.383c.248.248.24.66-.016.916zm2.996-2.768l-1.397 1.398c-.258.257-.676.257-.933 0l-2.465-2.465c-.258-.26-.258-.676 0-.934L409.86.32c.45-.453 1.184-.453 1.636 0l1.76 1.76c.452.452.452 1.184 0 1.636zm-9.6-.756c0-.525-.425-.97-.95-.97H391.96c-.803 0-1.453.65-1.453 1.454V21.58c0 .803.65 1.454 1.453 1.454h18.136c.803 0 1.454-.65 1.454-1.454V10.813c0-.525-.45-.95-.974-.95-.525 0-.95.425-.95.95v9.56c0 .435-.353.788-.79.788h-15.672c-.435 0-.788-.352-.788-.788V4.7c0-.436.353-.79.788-.79h9.543c.524 0 .95-.425.95-.95z" id="compose"/></g></g></g></svg>