<svg width="22" height="48" viewBox="0 0 22 48" version="1.1" xmlns="http://www.w3.org/2000/svg"><title>drill</title><desc>Created with Sketch.</desc><g id="Page-1" stroke="none" stroke-width="1" fill="none" fill-rule="evenodd"><g id="drill" transform="translate(-1)" fill="#231F1F"><g id="Icons"><g id="Automotive"><g id="Keys"><path d="M15.998 5c0 .552-.447 1-1 1h-6c-.553 0-1-.448-1-1s.447-1 1-1h6c.553 0 1 .448 1 1zm6.574 7.65c.533 1.516.533 3.185 0 4.7l-3.516 9.99c-.483 1.375-1.668 2.356-3.058 2.6V46c0 1.103-.898 2-2 2h-4c-1.103 0-2-.897-2-2V29.944c-1.4-.235-2.596-1.22-3.082-2.603L1.4 17.35c-.533-1.515-.533-3.184 0-4.7l3.516-9.99C5.476 1.07 6.974 0 8.644 0h6.686c1.67 0 3.167 1.07 3.726 2.66l3.516 9.99zM14 41l-.002-2h-4v2h4zm0 1l-.002-2h-4v2h4zm0 3l-.002-2h-4v2h4zm0 1l-.002-2h-4v2h4zm0-13l-.002-2h-4v2h4zm0 1l-.002-2h-4v2h4zm0 3l-.002-2h-4v2h4zm0 1l-.002-2h-4v2h4zm6.685-24.686l-3.515-9.99C16.892 2.53 16.152 2 15.33 2H8.644c-.824 0-1.563.53-1.84 1.323l-3.517 9.99c-.383 1.088-.383 2.286 0 3.374l3.516 9.99C7.08 27.47 7.82 28 8.643 28h6.687c.822 0 1.562-.53 1.84-1.323l3.515-9.99c.383-1.088.383-2.286 0-3.373z" id="KeysLadder-"/></g></g></g></g></g></svg>