<svg width="22" height="19" viewBox="0 0 22 19" version="1.1" xmlns="http://www.w3.org/2000/svg"><title>firstaid</title><desc>Created with Sketch.</desc><g id="Page-1" stroke="none" stroke-width="1" fill="none" fill-rule="evenodd"><g id="680x680-4" transform="translate(-371 -611)" fill="#231F1F"><g id="Row-8" transform="translate(49 609)"><path d="M324.936 6.264v13.92c0 .33-.27.6-.6.6h-.85c-.82 0-1.486-.666-1.486-1.487V7.15c0-.82.665-1.486 1.486-1.486h.85c.33 0 .6.27.6.6zm15.295 0v13.92c0 .33.27.6.6.6h.85c.82 0 1.486-.666 1.486-1.487V7.15c0-.82-.665-1.486-1.486-1.486h-.85c-.33 0-.6.27-.6.6zm-1.28.004v13.915c0 .332-.267.6-.6.6h-11.535c-.33 0-.6-.268-.6-.6V6.268c0-.333.27-.604.604-.604h.67c.164 0 .297-.133.297-.297v-.79c0-1.423 1.154-2.577 2.577-2.577h4.43c1.423 0 2.577 1.154 2.577 2.577v.79c0 .164.134.297.298.297h.68c.333 0 .603.27.603.604zm-9.454-.9c0 .163.133.296.297.296h5.614c.164 0 .297-.133.297-.297v-.84c0-.482-.392-.874-.875-.874h-4.46c-.483 0-.874.392-.874.875v.84zm6.605 7.53c0-.29-.235-.526-.525-.526h-1.625c-.29 0-.526-.236-.526-.526V10.22c0-.29-.236-.525-.526-.525h-.635c-.29 0-.527.235-.527.526v1.626c0 .29-.235.526-.526.526h-1.625c-.29 0-.526.235-.526.526v.635c0 .29.235.526.525.526h1.625c.29 0 .526.235.526.525v1.625c0 .29.236.527.527.527h.635c.29 0 .526-.236.526-.527v-1.625c0-.29.236-.526.526-.526h1.625c.29 0 .526-.236.526-.527v-.635z" id="firstaid"/></g></g></g></svg>