<svg width="34" height="39" viewBox="0 0 34 39" xmlns="http://www.w3.org/2000/svg"><title>Car chassis</title><desc>Created with Sketch.</desc><g fill="none" fill-rule="evenodd"><g transform="translate(-563 -79)" fill="#231F1F"><g transform="translate(563 79)"><path d="M31 27c-1.654 0-3 1.346-3 3v2H6v-2c0-1.654-1.346-3-3-3s-3 1.346-3 3v6c0 1.654 1.346 3 3 3s3-1.346 3-3v-2h22v2c0 1.654 1.346 3 3 3s3-1.346 3-3v-6c0-1.654-1.346-3-3-3zM4 36c0 .55-.45 1-1 1s-1-.45-1-1v-6c0-.55.45-1 1-1s1 .45 1 1v6zm28 0c0 .55-.45 1-1 1s-1-.45-1-1v-6c0-.55.45-1 1-1s1 .45 1 1v6zM31 1c-1.654 0-3 1.346-3 3v2H6V4c0-1.654-1.346-3-3-3S0 2.346 0 4v6c0 1.654 1.346 3 3 3s3-1.346 3-3V8h22v2c0 1.654 1.346 3 3 3s3-1.346 3-3V4c0-1.654-1.346-3-3-3zM4 10c0 .55-.45 1-1 1s-1-.45-1-1V4c0-.55.45-1 1-1s1 .45 1 1v6zm28 0c0 .55-.45 1-1 1s-1-.45-1-1V4c0-.55.45-1 1-1s1 .45 1 1v6zM8 4V1c0-.552.448-1 1-1s1 .448 1 1v3c0 .552-.448 1-1 1s-1-.448-1-1zm16 0V1c0-.552.448-1 1-1s1 .448 1 1v3c0 .552-.448 1-1 1s-1-.448-1-1zm-3 13v6c0 .55.45 1 1 1h1c1.654 0 3 1.346 3 3v3c0 .552-.448 1-1 1s-1-.448-1-1v-3c0-.55-.45-1-1-1h-1c-1.654 0-3-1.346-3-3v-6c0-1.654 1.346-3 3-3h1c.55 0 1-.45 1-1v-3c0-.552.448-1 1-1s1 .448 1 1v3c0 1.654-1.346 3-3 3h-1c-.55 0-1 .45-1 1zm-8 6v-6c0-.55-.45-1-1-1h-1c-1.654 0-3-1.346-3-3v-3c0-.552.448-1 1-1s1 .448 1 1v3c0 .55.45 1 1 1h1c1.654 0 3 1.346 3 3v6c0 1.654-1.346 3-3 3h-1c-.55 0-1 .45-1 1v3c0 .552-.448 1-1 1s-1-.448-1-1v-3c0-1.654 1.346-3 3-3h1c.55 0 1-.45 1-1z"/></g></g></g></svg>