<svg width="18" height="22" viewBox="0 0 18 22" version="1.1" xmlns="http://www.w3.org/2000/svg"><title>flask</title><desc>Created with Sketch.</desc><g id="Page-1" stroke="none" stroke-width="1" fill="none" fill-rule="evenodd"><g id="680x680-5" transform="translate(-213 -210)" fill="#000"><g id="Row-3" transform="translate(51 209)"><path d="M179.317 18.278l-4.397-6.74c-.634-.973-.972-2.11-.972-3.27V4.65c0-.753.235-1.554.612-2.206.29-.5-.07-1.13-.65-1.13h-5.934c-.58 0-.94.63-.65 1.13.377.652.612 1.453.612 2.206v3.618c0 1.16-.338 2.297-.972 3.27l-4.397 6.74c-1.187 1.818.118 4.226 2.288 4.226h12.17c2.17 0 3.475-2.408 2.29-4.226zm-2.248 2.932h-12.253c-1.124 0-1.8-1.245-1.19-2.188l4.397-6.804c.773-1.196 1.184-2.59 1.184-4.013V3.302c0-.385.313-.698.698-.698h2.052c.386 0 .698.313.698.698v4.87c0 1.424.41 2.818 1.185 4.013l4.42 6.837c.61.943-.067 2.188-1.19 2.188zm-.8-1.267h-10.66c-.444 0-.712-.49-.472-.863l2.828-4.406c.136-.21.35-.357.594-.41.3-.067.63-.114.97-.114 1.173 0 1.843.412 2.875.412.652 0 .62-.054.946-.094.242-.03.482.08.613.283l2.78 4.33c.238.373-.03.863-.473.863z" id="flask"/></g></g></g></svg>