<svg width="18" height="23" viewBox="0 0 18 23" version="1.1" xmlns="http://www.w3.org/2000/svg"><title>group</title><desc>Created with Sketch.</desc><g id="Page-1" stroke="none" stroke-width="1" fill="none" fill-rule="evenodd"><g id="680x680-4" transform="translate(-531 -449)" fill="#231F1F"><g id="Row-6" transform="translate(48 449)"><path d="M494.958 3.016c0 1.666-1.35 3.017-3.016 3.017s-3.017-1.35-3.017-3.017c0-1.666 1.35-3.016 3.017-3.016 1.665 0 3.016 1.35 3.016 3.016zm-7.824 5.553l.515 5.723c.04.44.4.784.842.802l.38.015c.306.013.552.253.57.558l.462 6.01c.035.453.413.803.868.803h2.36c.456 0 .835-.35.87-.803l.457-6.014c.02-.303.265-.54.568-.553l.38-.016c.434-.018.79-.356.828-.79l.512-5.735c0-.764-.62-1.384-1.383-1.384h-6.847c-.764 0-1.384.62-1.384 1.383zm10.814 0l-.517 5.84c-.076.856-.673 1.558-1.465 1.797-.192.058-.367.26-.384.46l-.286 3.2c-.034.38.265.706.645.706h1.766c.4 0 .73-.307.76-.706l.403-5.277c.018-.266.233-.474.5-.485l.33-.014c.383-.015.694-.312.728-.693l.45-5.032c0-.67-.544-1.213-1.214-1.213h-1.414c-.314 0-.534.307-.435.605.086.255.133.528.133.812zM496.3.872c-.322.047-.517.383-.4.688.48 1.262.316 2.585-.377 3.675-.176.277-.038.643.27.753 1.81.64 3.71-.807 3.518-2.762-.142-1.462-1.494-2.573-3.01-2.353zm-10.238 6.884c.1-.298-.12-.605-.435-.605h-1.413c-.67 0-1.214.543-1.214 1.213l.45 5.032c.033.38.344.678.727.694l.332.015c.265.01.48.22.498.485l.402 5.277c.03.4.362.706.762.706h1.766c.38 0 .68-.326.645-.705l-.286-3.202c-.018-.2-.193-.4-.385-.46-.792-.238-1.39-.94-1.466-1.796l-.517-5.84c0-.285.046-.558.132-.813zm-1.496-4.53c-.19 1.954 1.71 3.4 3.517 2.76.31-.11.447-.475.27-.752-.692-1.09-.857-2.413-.375-3.674.117-.304-.08-.64-.4-.687-1.516-.22-2.87.89-3.012 2.353z" id="group"/></g></g></g></svg>