<svg width="28" height="20" viewBox="0 0 28 20" version="1.1" xmlns="http://www.w3.org/2000/svg"><title>hamburger</title><desc>Created with Sketch.</desc><g id="Page-1" stroke="none" stroke-width="1" fill="none" fill-rule="evenodd"><path d="M0 1.01C0 .45.44 0 .997 0h26.006c.55 0 .997.443.997 1.01v1.98C28 3.55 27.56 4 27.003 4H.997C.447 4 0 3.557 0 2.99V1.01zm0 8C0 8.45.44 8 .997 8h26.006c.55 0 .997.443.997 1.01v1.98c0 .558-.44 1.01-.997 1.01H.997C.447 12 0 11.557 0 10.99V9.01zm0 8C0 16.45.44 16 .997 16h26.006c.55 0 .997.443.997 1.01v1.98c0 .558-.44 1.01-.997 1.01H.997C.447 20 0 19.557 0 18.99v-1.98z" id="hamburger" fill="#000"/></g></svg>