<svg width="24" height="19" viewBox="0 0 24 19" version="1.1" xmlns="http://www.w3.org/2000/svg"><title>heart</title><desc>Created with Sketch.</desc><g id="Page-1" stroke="none" stroke-width="1" fill="none" fill-rule="evenodd"><g id="680x680-5" transform="translate(-609 -130)" fill="#000"><g id="Row-2" transform="translate(52 128)"><path d="M570.28 20.552c-.7.64-1.77.635-2.47-.006-3.32-3.045-5.898-5.657-8.3-8.46-2.482-2.482-2.23-6.66.755-8.797 1.713-1.227 4.032-1.362 5.917-.42 1.087.543 1.85 1.32 2.358 2.205.223.39.784.384 1.008-.005.545-.947 1.38-1.77 2.596-2.315 1.576-.706 3.436-.674 4.972.116 3.665 1.885 4.052 6.685 1.39 9.347-2.79 3.194-5.588 5.934-8.225 8.335" id="heart"/></g></g></g></svg>