<svg width="22" height="21" viewBox="0 0 22 21" version="1.1" xmlns="http://www.w3.org/2000/svg"><title>monitor</title><desc>Created with Sketch.</desc><g id="Page-1" stroke="none" stroke-width="1" fill="none" fill-rule="evenodd"><g id="680x680-2" transform="translate(-528 -531)" fill="#231F1F"><g id="Row-7" transform="translate(49 528)"><path d="M499.524 3h-19.048C479.66 3 479 3.655 479 4.464v13.282c0 .808.66 1.463 1.476 1.463h5.21c.488 0 .883.39.883.875v1.16c0 .483-.396.875-.884.875h-.087c-.52 0-.94.417-.94.93v.02c0 .514.42.93.94.93h8.776c.52 0 .94-.416.94-.93v-.02c0-.513-.42-.93-.94-.93h-.067c-.49 0-.884-.392-.884-.876v-1.16c0-.483.395-.875.883-.875h5.214c.815 0 1.476-.656 1.476-1.464V4.464c0-.81-.66-1.464-1.476-1.464zM490 18.516c-.43 0-.78-.346-.78-.772 0-.426.35-.772.78-.772.43 0 .778.346.778.772 0 .426-.35.772-.778.772zm9.072-3.01c0 .292-.238.53-.533.53h-17.105c-.293 0-.533-.238-.533-.53V5.39c0-.292.24-.528.533-.528h17.104c.294 0 .532.236.532.528v10.115z" id="monitor"/></g></g></g></svg>