<svg width="329" height="243" viewBox="0 0 329 243" version="1.1" xmlns="http://www.w3.org/2000/svg"><title>lab</title><desc>Created with Sketch.</desc><g id="Page-1" stroke="none" stroke-width="1" fill="none" fill-rule="evenodd"><g id="lab" transform="translate(4 2)"><g id="Group"><g transform="translate(40)"><path id="Rectangle-path" fill="#fff" d="M.5.5h48v144H.5z"/><path d="M.5 176.5c0 13.255 10.744 24 24 24 13.254 0 24-10.745 24-24v-32H.5v32z" id="liquid-1" fill="#BCEBDD"/><path d="M96.5 176.5c0 13.255 10.744 24 24 24 13.254 0 24-10.745 24-24v-64h-48v64z" id="liquid-2" fill="#BCEBDD"/><path id="Rectangle-path" fill="#fff" d="M96.5.5h48v112h-48z"/><path d="M192.5 64.5v112c0 13.255 10.744 24 24 24 13.254 0 24-10.745 24-24v-112h-48z" id="liquid-3" fill="#BCEBDD"/></g><path d="M40.5.5v176c0 13.255 10.744 24 24 24 13.254 0 24-10.745 24-24V.5h-48z" id="glas" stroke="#000" stroke-width="5"/><path id="glas" stroke="#000" stroke-width="5" fill="#fff" d="M32.5.5h64v8h-64z"/><g transform="translate(40 32)" id="Shape" stroke="#000" stroke-width="5"><path d="M.5 128.5h16M.5 112.5h16M.5 96.5h16M.5 80.5h16M.5 64.5h16M.5 48.5h16M.5 32.5h16M.5 16.5h16M.5.5h16"/></g><path d="M136.5.5v176c0 13.255 10.744 24 24 24 13.254 0 24-10.745 24-24V.5h-48z" id="glas" stroke="#000" stroke-width="5"/><path id="glas" stroke="#000" stroke-width="5" fill="#fff" d="M128.5.5h64v8h-64z"/><g transform="translate(136 32)" id="Shape" stroke="#000" stroke-width="5"><path d="M.5 128.5h16M.5 112.5h16M.5 96.5h16M.5 80.5h16M.5 64.5h16M.5 48.5h16M.5 32.5h16M.5 16.5h16M.5.5h16"/></g><path d="M232.5.5v176c0 13.255 10.744 24 24 24 13.254 0 24-10.745 24-24V.5h-48z" id="glas" stroke="#000" stroke-width="5"/><path id="glas" stroke="#000" stroke-width="5" fill="#fff" d="M224.5.5h64v8h-64z"/><g transform="translate(232 32)" id="Shape" stroke="#000" stroke-width="5"><path d="M.5 128.5h16M.5 112.5h16M.5 96.5h16M.5 80.5h16M.5 64.5h16M.5 48.5h16M.5 32.5h16M.5 16.5h16M.5.5h16"/></g><path d="M320.5 240.5v-144H.5v144" id="rack" stroke="#000" stroke-width="8"/></g><path d="M88.5 144.5h-48M136.5 112.5h48M280.5 64.5h-48" id="Shape" stroke="#000" stroke-width="5"/></g></g></svg>