<svg width="14" height="24" viewBox="0 0 14 24" version="1.1" xmlns="http://www.w3.org/2000/svg"><title>lightbulb</title><desc>Created with Sketch.</desc><g id="Page-1" stroke="none" stroke-width="1" fill="none" fill-rule="evenodd"><g id="680x680-3" transform="translate(-613 -50)" fill="#231F1F"><g id="Row-1" transform="translate(53 49)"><path d="M566.723 18.067h2.34c.517 0 .918-.295 1.06-1.02.452-4.535 3.29-6.16 3.29-9.67 0-3.513-3.057-6.377-6.707-6.377S560 3.864 560 7.376c0 3.512 2.838 5.136 3.29 9.672.142.724.543 1.02 1.06 1.02h2.373zm-2.442 5.163c-.106-.032-.205-.09-.287-.173-.25-.255-.223-.66.034-.91.15-.143.13-.406-.02-.55-.26-.25-.26-.655 0-.904.156-.15.156-.408 0-.558-.26-.252-.26-.662.007-.91.12-.114.28-.172.44-.177h4.49c.166.002.33.06.454.177.266.248.268.658.007.91-.156.15-.156.407 0 .558.26.25.26.654 0 .903-.15.145-.17.408-.02.552.257.248.283.654.034.91-.082.082-.18.14-.286.17v.002l-.968.213c-.256.044-.492.225-.648.463-.157.238-.473.462-.81.462-.335 0-.654-.224-.81-.462-.157-.238-.392-.42-.65-.463l-.967-.213z" id="lightbulb"/></g></g></g></svg>