<svg width="10" height="24" viewBox="0 0 10 24" version="1.1" xmlns="http://www.w3.org/2000/svg"><title>medicin</title><desc>Created with Sketch.</desc><g id="Page-1" stroke="none" stroke-width="1" fill="none" fill-rule="evenodd"><g id="680x680-5" transform="translate(-375 -210)" fill="#000"><g id="Row-3" transform="translate(50 208)"><g id="medicin" transform="translate(325 2)"><path d="M5.51 7.904c.284-.063.553.15.553.44v11.222c0 .602-.494 1.09-1.098 1.078-.594-.01-1.06-.52-1.06-1.114V8.327c0-.295.278-.51.563-.438.173.044.358.068.55.068.17 0 .336-.018.493-.054zM9.373 1.53c-.09.252-.732 1.345-.732 2.267V19.6c0 1.99-1.687 3.604-3.678 3.604-1.99 0-3.606-1.614-3.606-3.605V3.796c0-.922-.64-2.015-.732-2.266-.09-.25.063-.873.73-.875h7.288c.667.002.82.626.73.876zM7.368 2.69c0-.416-.338-.754-.755-.754h-3.22c-.418 0-.756.338-.756.755V19.44c0 1.238.89 2.365 2.122 2.49 1.415.14 2.608-.968 2.608-2.355V2.69z" id="testtube"/></g></g></g></g></svg>