<svg width="46" height="35" viewBox="0 0 46 35" version="1.1" xmlns="http://www.w3.org/2000/svg"><title>metal</title><desc>Created with Sketch.</desc><g id="Page-1" stroke="none" stroke-width="1" fill="none" fill-rule="evenodd"><g id="metal" transform="matrix(-1 0 0 1 46 0)" fill="#000"><path d="M45.778 22.75l-5.987-9.3s0-.002-.003-.005c-.003-.004-.008-.007-.01-.012-.05-.072-.104-.135-.165-.192l-.055-.044c-.053-.045-.11-.084-.17-.118-.013-.007-.022-.018-.036-.025L15.847.95c-.34-.177-.748-.17-1.083.018l-8.79 4.905c-.013.006-.022.017-.033.024-.065.04-.126.084-.183.137-.012.012-.026.02-.04.033-.056.06-.11.122-.155.193L.275 14.605c-.164.26-.218.573-.148.873.068.3.255.558.517.72l30.13 18.472c.02.012.042.016.063.026.02.012.037.028.06.038.037.018.077.025.116.04.028.008.055.02.083.027.09.023.182.037.274.037h.006c.112 0 .222-.02.33-.054.03-.01.06-.024.09-.036.08-.03.15-.07.22-.117.02-.012.04-.016.057-.03l13.44-10.318c.472-.364.588-1.03.265-1.53zM15.343 3.27L36.6 14.215l-6.066 4.187-21.61-11.55 6.42-3.582zM6.93 8.387l22.57 12.06.61 11.125L2.834 14.85 6.93 8.387zm25.47 23.07l-.61-11.137 6.714-4.634 4.775 7.418-10.88 8.354z" id="Shape"/></g></g></svg>