<svg width="55" height="32" viewBox="0 0 55 32" version="1.1" xmlns="http://www.w3.org/2000/svg"><title>open-box</title><desc>Created with Sketch.</desc><g id="Page-1" stroke="none" stroke-width="1" fill="none" fill-rule="evenodd"><g id="open-box"><path d="M54.994 6.082c-.002-.086-.034-.17-.095-.25-.016-.014-.04-.03-.058-.045-.058-.056-.126-.11-.215-.155-.01-.006-.016-.015-.028-.022-.034-.016-.076-.016-.112-.03-.057-.02-.103-.046-.165-.06L31.78.55c-.018-.006-.04-.004-.06-.008-.063-.01-.123-.01-.188-.016-.084-.006-.166-.01-.248-.002-.025.002-.05-.005-.073-.002L1.157 4.118c-.036.005-.064.018-.1.023-.05.01-.096.02-.146.035-.068.02-.13.043-.187.07-.04.018-.078.037-.113.058-.06.036-.107.08-.148.125-.015.016-.04.028-.053.045-.006.006-.004.01-.008.017-.04.058-.063.12-.07.188 0 .012-.01.025-.01.037L.32 4.72V24.91c0 .025.02.045.025.072.012.054.018.108.054.157.027.043.072.073.112.108.035.032.06.065.104.09.072.045.16.075.254.106.025.01.045.023.075.028l.01.004h.003l22.53 5.81c.133.036.276.05.413.05h.002c.085 0 .17-.006.252-.016l30.058-4.44c.463-.067.788-.31.788-.594V6.096c0-.005-.006-.01-.006-.014zM32.456 2.01L50.46 5.976l-18.004 2.66V2.008zm-2.08 6.934l-6.385.943-19.194-4.95 25.58-3.063v7.07z" id="box" fill="#000"/><path d="M2.4 5.657l20.46 5.277v18.85L2.4 24.51V5.657z" id="left" fill="#000"/><path d="M52.92 25.806l-27.978 4.13V11.013l27.98-4.132v18.926z" id="right" fill="#000"/><path d="M24 9.5v21" id="open" stroke="#F8F8F8" stroke-width="2" stroke-linecap="square"/></g></g></svg>