<svg width="24" height="26" viewBox="0 0 24 26" version="1.1" xmlns="http://www.w3.org/2000/svg"><title>cube-open</title><desc>Created with Sketch.</desc><g id="Page-1" stroke="none" stroke-width="1" fill="none" fill-rule="evenodd"><g id="680x680-4" transform="translate(-449 -48)" fill="#231F1F"><g id="Row-1" transform="translate(52 48)"><path d="M407.63 14.15v10.426c0 .473-.512.77-.922.532l-8.92-5.15c-.487-.28-.788-.8-.788-1.364V8.437c0-1.276.68-2.455 1.786-3.093l8.816-5.09c.43-.25.944-.318 1.426-.192l9.29 2.44c.492.13.578.79.135 1.043l-9.03 5.128c-.428.243-.934.31-1.41.186l-7.72-2.01c-.496-.13-1.01.124-1.21.596l-.006.017c-.202.48-.014 1.033.438 1.29l7.462 4.27c.404.23.653.66.653 1.126zm9.38-8.614l-1.743 1.018 2.312 1.303c.36.203.36.72.002.926l-7.37 4.21c-.42.24-.676.682-.676 1.163v10.392c0 .473.512.77.922.533l8.906-5.14c.466-.27.754-.77.754-1.307V8.16c0-.592-.327-1.138-.85-1.418l-2.257-1.206z" id="cube-open"/></g></g></g></svg>