<svg width="22" height="22" viewBox="0 0 22 22" version="1.1" xmlns="http://www.w3.org/2000/svg"><title>pen</title><desc>Created with Sketch.</desc><g id="Page-1" stroke="none" stroke-width="1" fill="none" fill-rule="evenodd"><g id="680x680-4" transform="translate(-50 -290)" fill="#231F1F"><g id="Row-4" transform="translate(50 289)"><path d="M6.573 8.787l6.6-6.312c.38-.362.937-.463 1.42-.255l.6.26c.47.2 1.013.11 1.392-.23.337-.303.58-.515.708-.61 1.206-.908 2.702-.83 3.64.106.935.937 1.013 2.433.105 3.64-.907 1.206-12.424 13.15-12.765 13.49-.342.343-.722.232-.928.025l-3.568-3.567c-.207-.206-.318-.586.024-.927.23-.23 5.688-5.495 9.616-9.206.21-.198.21-.536.013-.746-.2-.212-.534-.22-.744-.018l-5.35 5.146c-.215.206-.562.195-.772-.015-.216-.216-.213-.568.01-.78zM.5 21c.09.102.062.27-.034.365l-.3.3c-.205.206-.233.55-.008.774.225.224.57.197.774-.008l.303-.302c.098-.098.268-.107.376-.02.087.068.19.1.296.063 2.227-.78 4.237-1.726 4.458-1.833.228-.11.384-.498.118-.765l-1.73-1.73-1.73-1.73c-.266-.265-.654-.11-.764.12-.108.22-1.063 2.22-1.844 4.446-.038.11.01.232.086.32z" id="pen"/></g></g></g></svg>