<svg width="26" height="48" viewBox="0 0 26 48" version="1.1" xmlns="http://www.w3.org/2000/svg"><title>plug</title><desc>Created with Sketch.</desc><g id="Page-1" stroke="none" stroke-width="1" fill="none" fill-rule="evenodd"><g id="plug" fill="#231F1F"><g id="Icons"><g id="Automotive"><g id="Sparking-Plug"><path d="M21 44c-.1 2.262-2.765 2-3 2h-1.55c-.704 1.22-2.014 2-3.45 2-1.436 0-2.746-.78-3.45-2H8c-1.654 0-3-1.346-3-3v-3c0-.553.447-1 1-1 .553 0 1 .447 1 1v3c0 .552.448 1 1 1h2.184c.422 0 .8.266.942.665C11.41 45.465 12.162 46 13 46c.838 0 1.59-.536 1.874-1.335.142-.4.52-.665.942-.665H18c.552 0 1-.448 1-1v-3c0-.553.447-1 1-1 .553 0 1 .447 1 1v4zM9.836 7.986c.542.097 1.06-.277 1.15-.822L11.846 2h2.307l.86 5.164c.082.49.506.836.986.836.054 0 .108-.004.164-.014.545-.09.913-.606.822-1.15l-1-6C15.906.353 15.49 0 15 0h-4c-.49 0-.906.353-.986.836l-1 6c-.09.544.277 1.06.822 1.15zM26 29v6c0 1.654-1.346 3-3 3H3c-1.654 0-3-1.346-3-3v-6c0-1.655 1.346-3 3-3h2v-6c0-.266.105-.52.293-.707L6.586 18l-1.293-1.293c-.39-.39-.39-1.024 0-1.414L6.586 14l-1.293-1.293c-.39-.39-.39-1.024 0-1.414l2-2C7.48 9.105 7.733 9 8 9h10c.266 0 .52.105.707.293l2 2c.39.39.39 1.023 0 1.414L19.414 14l1.293 1.293c.39.39.39 1.023 0 1.414L19.414 18l1.293 1.293c.187.187.293.44.293.707v6h2c1.654 0 3 1.345 3 3zM7 26h12v-5.586l-1.707-1.707c-.39-.39-.39-1.024 0-1.414L18.586 16l-1.293-1.293c-.39-.39-.39-1.024 0-1.414L18.586 12l-1-1H8.414l-1 1 1.293 1.293c.39.39.39 1.023 0 1.414L7.414 16l1.293 1.293c.39.39.39 1.023 0 1.414L7 20.414V26zm17 3c0-.552-.448-1-1-1H3c-.552 0-1 .448-1 1v6c0 .55.448 1 1 1h20c.552 0 1-.45 1-1v-6z" id="Shape"/></g></g></g></g></g></svg>