<svg width="20" height="27" viewBox="0 0 20 27" version="1.1" xmlns="http://www.w3.org/2000/svg"><title>barcharteasel</title><desc>Created with Sketch.</desc><g id="Page-1" stroke="none" stroke-width="1" fill="none" fill-rule="evenodd"><g id="680x680" transform="translate(-450 -368)" fill="#000"><g id="Row-5" transform="translate(49 368)"><path d="M420.743 5.27c-.013-.705-.603-1.27-1.326-1.27H402.56c-.723 0-1.315.567-1.327 1.273L401 18.688c-.012.72.583 1.312 1.322 1.312h17.356c.74 0 1.336-.593 1.322-1.314l-.257-13.415zM411 3h1.28c.462 0 .72-.418.72-.768 0-.348-.135-.714-.6-.852-.462-.137-.636-.234-.636-.664 0-.43-.374-.716-.764-.716s-.764.287-.764.716c0 .43-.174.527-.637.664-.465.138-.6.504-.6.852 0 .35.258.768.72.768H411zm9.24 18h-18.48c-.42 0-.76.42-.76.94 0 .517.34.938.76.938h.978c.4 0 .692.463.594.94l-.413 2.01c-.106.5.14 1.013.546 1.142.064.02.128.03.19.03.34 0 .65-.282.738-.706l.51-2.472c.114-.556.52-.944.985-.944h10.185c.46 0 .865.383.983.933l.53 2.473c.088.424.397.706.736.706.063 0 .127-.01.19-.03.408-.13.652-.642.548-1.144l-.428-1.99c-.103-.478.19-.948.592-.948h1.013c.42 0 .76-.42.76-.94s-.34-.938-.76-.938zM408 13c-.552 0-1 .443-1 1v1c0 .553.444 1 1 1 .552 0 1-.443 1-1v-1c0-.553-.444-1-1-1zm6-4c-.552 0-1 .438-1 1.003v4.994c0 .554.444 1.003 1 1.003.552 0 1-.438 1-1.003v-4.994C415 9.45 414.556 9 414 9zm-3 2c-.552 0-1 .444-1 1v3c0 .552.444 1 1 1 .552 0 1-.444 1-1v-3c0-.552-.444-1-1-1z" id="barcharteasel"/></g></g></g></svg>