<svg width="44" height="38" viewBox="0 0 44 38" xmlns="http://www.w3.org/2000/svg"><title>Hazard Triangle</title><desc>Created with Sketch.</desc><g fill="none" fill-rule="evenodd"><g transform="translate(-198 -562)" fill="#231F1F"><g transform="translate(198 562)"><path d="M4.003 32.994c0-.552.448-1 1-1s1 .448 1 1-.448 1-1 1-1-.448-1-1zm39.857 1.188c-.317 1.297-1.12 2.394-2.26 3.087-.783.476-1.68.728-2.592.728H4.993c-.912 0-1.81-.252-2.593-.73C.045 35.84-.706 32.757.726 30.4L17.73 2.404c.018-.03.05-.05.07-.077.4-.63.927-1.187 1.605-1.6C20.187.253 21.085 0 21.997 0c1.763 0 3.36.898 4.276 2.404L43.275 30.4c.694 1.14.902 2.484.585 3.782zM3.44 35.56c.47.286 1.007.437 1.553.437H5c1.056-.003 2.012-.54 2.56-1.443l13.27-21.85-3.1-5.107c-.148-.242-.257-.496-.36-.75L2.436 31.436c-.86 1.415-.41 3.264 1.005 4.123zm5.828.032c-.086.142-.184.274-.282.405h26.03c-.1-.13-.197-.263-.283-.405l-3.4-5.597H12.668l-3.4 5.597zm20.85-7.597L22.002 14.63l-8.117 13.365H30.12zm11.448 3.443L24.563 3.442C24.015 2.54 23.055 2 21.997 2c-.546 0-1.083.15-1.553.437-1.414.86-1.864 2.708-1.005 4.122L36.44 34.553c.548.902 1.504 1.44 2.56 1.443h.007c.545 0 1.08-.15 1.55-.436.686-.416 1.168-1.074 1.357-1.852.19-.78.065-1.585-.35-2.27zm-2.563.556c-.552 0-1 .448-1 1s.448 1 1 1 1-.448 1-1-.448-1-1-1zm-17-28c-.552 0-1 .448-1 1s.448 1 1 1 1-.448 1-1-.448-1-1-1z"/></g></g></g></svg>