<svg width="257" height="257" viewBox="0 0 257 257" version="1.1" xmlns="http://www.w3.org/2000/svg"><title>prototype</title><desc>Created with Sketch.</desc><g id="Page-1" stroke="none" stroke-width="1" fill="none" fill-rule="evenodd"><g id="prototype" transform="translate(3 2)"><g id="Group"><circle id="Oval" fill="#fff" cx="218.753" cy="32.649" r="32"/><path d="M.946 250.635l16.95-5.68L6.58 233.64.947 250.636z" id="tip" fill="#FBD764"/><path d="M23.485 182.66L6.58 233.64l11.316 11.315 50.843-17.037" id="Shape" fill="#fff"/><path d="M68.74 227.918L241.38 55.276 196.126 10.02 23.486 182.66" id="pen" fill="#BCEBDD"/><path d="M218.753 32.648l-172.64 172.64" id="Shape"/><path d="M196.126 10.02c12.496-12.495 32.758-12.496 45.254 0 12.498 12.5 12.498 32.76 0 45.256" id="Shape" stroke="#000" stroke-width="5"/><path d="M196.126 10.02L23.486 182.66 6.58 233.64.947 250.636l16.95-5.68 50.843-17.037L241.38 55.276 196.126 10.02zM218.753 32.648l-172.64 172.64" id="Shape" stroke="#000" stroke-width="5"/><path id="ruler" stroke="#000" stroke-width="5" fill="#FBD764" d="M249.847 205.168L204.6 250.416.984 46.802 46.233 1.554z"/><g transform="translate(46 12)" id="Shape" stroke="#000" stroke-width="5"><path d="M11.532.85L.22 12.162M22.847 12.163L11.532 23.477M34.16 23.477L22.846 34.79M45.474 34.79L34.16 46.105M56.788 46.104L45.474 57.418M68.1 57.418L56.79 68.73M79.415 68.73L68.1 80.046M90.73 80.045L79.414 91.36M102.042 91.36L90.73 102.67M113.356 102.673l-11.314 11.313M124.67 113.986L113.355 125.3M135.983 125.3l-11.312 11.313M147.298 136.613l-11.315 11.315M158.61 147.928l-11.312 11.312M169.925 159.24l-11.315 11.315M181.237 170.555l-11.312 11.312M192.552 181.87L181.24 193.18"/></g><path d="M215.925 239.123L12.278 35.477M68.74 227.918L23.484 182.66M17.896 244.955L6.58 233.64" id="Shape" stroke="#000" stroke-width="5"/></g></g></g></svg>