<svg width="224" height="234" viewBox="0 0 224 234" version="1.1" xmlns="http://www.w3.org/2000/svg"><title>packaging</title><desc>Created with Sketch.</desc><g id="Page-1" stroke="none" stroke-width="1" fill="none" fill-rule="evenodd"><g id="packaging" transform="translate(0 2)" stroke-width="5" stroke="#000"><g id="Layer_120"><path d="M102.016 219.45L33.578 116.796 102.016 14.14l19.968 13.31-59.562 89.345 59.562 89.344-19.968 13.31z" id="arm"/><path d="M0 228.795h224" id="Shape"/><path d="M80 220.795c0-17.673 14.326-32 32-32s32 14.327 32 32" id="bottom" fill="#BCEBDD"/><path d="M48 228.795l32-8h64l32 8M128 16.795l32-16 32 16M128 24.795l32 16 32-16" id="Shape"/><path id="top" fill="#BCEBDD" d="M88 4.795h48v32H88z"/><circle id="middle-outer" fill="#BCEBDD" cx="50" cy="116.795" r="24"/><circle id="Oval" cx="50" cy="116.795" r="8"/></g></g></g></svg>