<svg width="166" height="271" viewBox="0 0 166 271" version="1.1" xmlns="http://www.w3.org/2000/svg"><title>rocket</title><desc>Created with Sketch.</desc><g id="Page-1" stroke="none" stroke-width="1" fill="none" fill-rule="evenodd"><g id="rocket" transform="translate(2 3)" stroke="#000" stroke-width="5"><path d="M63.66 32.907c4.834-13.256 10.657-24.172 17.172-32 6.516 7.828 12.338 18.744 17.172 32" id="Shape" fill="#fff"/><path d="M98.004 32.907H63.66c-9.205 25.238-14.828 58.957-14.828 96 0 5.324.117 10.58.344 15.75h63.312c.227-5.17.344-10.426.344-15.75 0-37.043-5.623-70.76-14.828-96z" id="Shape" fill="#BCEBDD"/><path d="M80.832 144.656H49.176c1.516 34.633 7.97 65.5 17.54 88h28.233c9.57-22.5 16.022-53.367 17.538-88H80.832zM112.582 143.406s-5.75 61.75 32 80v16s-37.5-8.75-63.75-6.5M49.082 143.406s5.75 61.75-32 80v16s37.5-8.75 63.75-6.5" id="Shape" fill="#fff"/><path d="M49.176 144.656c1.516 34.633 7.97 65.5 17.54 88h28.233c9.57-22.5 16.022-53.367 17.538-88" id="Shape" fill="#BCEBDD"/><path d="M80.832.907c-6.516 7.828-12.338 18.744-17.172 32h34.344C93.17 19.65 87.348 8.735 80.832.907zM10.402 171.906c-2.016 3.686-3.816 8.825-5.313 15.064h10.627c-1.496-6.24-3.298-11.378-5.315-15.064zM66.715 232.656c1.23 2.893 2.512 5.645 3.84 8.25H91.11c1.328-2.605 2.61-5.357 3.84-8.25H66.715zM94.95 232.656c-1.23 2.893-2.513 5.645-3.84 8.25H70.554c-1.328-2.605-2.61-5.357-3.84-8.25H94.95zM151.26 171.906c2.018 3.686 3.818 8.825 5.314 15.064h-10.627c1.496-6.24 3.297-11.378 5.313-15.064z" id="Shape" fill="#fff"/><circle id="Oval" fill="#FBD764" cx="80.832" cy="80.907" r="16"/><path d="M2.81 265.406h15.188c.406-2.717.765-5.558 1.07-8.5H1.738c.306 2.943.663 5.783 1.07 8.5zM142.596 256.906c.307 2.942.662 5.783 1.07 8.5h15.19c.407-2.717.763-5.558 1.07-8.5h-17.33z" id="Shape" fill="#fff"/><path d="M15.717 186.97H5.09C2.24 198.853.5 214.726.5 232.164c0 8.745.44 17.093 1.238 24.743h17.33c.797-7.65 1.237-15.998 1.237-24.743 0-17.438-1.74-33.31-4.588-45.192zM156.574 186.97H145.947c-2.85 11.882-4.59 27.755-4.59 45.193 0 8.745.44 17.093 1.238 24.743h17.329c.797-7.65 1.236-15.998 1.236-24.743.002-17.438-1.736-33.31-4.586-45.192z" id="Shape" fill="#BCEBDD"/><path d="M49.176 144.656h63.406" id="Shape"/></g></g></svg>