<svg width="40" height="40" viewBox="0 0 40 40" xmlns="http://www.w3.org/2000/svg"><title>Screwdriver</title><desc>Created with Sketch.</desc><g fill="none" fill-rule="evenodd"><g transform="translate(-1040 -1039)" fill="#231F1F"><g transform="translate(1040 1039)"><path d="M39.82 4.355l-2.8 4.2c-.072.11-.167.204-.276.278l-4.118 2.745-7.03 7.03c-.195.195-.45.293-.706.293-.256 0-.512-.097-.707-.292-.39-.39-.39-1.024 0-1.414l7.1-7.1c.046-.048.097-.09.152-.126L35.47 7.28 37.7 3.928l-1.64-1.64L32.71 4.52l-2.69 4.035c-.035.055-.077.106-.124.152l-7.1 7.1c-.39.392-1.024.392-1.414 0-.39-.39-.39-1.022 0-1.413l7.03-7.03 2.745-4.118c.073-.11.168-.205.278-.278l4.2-2.8c.395-.265.924-.212 1.26.125l2.8 2.8c.338.337.39.865.126 1.262zm-14.424 18.64c.188.186.293.44.293.706 0 .266-.106.52-.294.708l-2.1 2.1c-.307.306-.774.38-1.154.188l-1.03-.515c-.613-.308-1.37-.216-1.89.213l-1.084 2.53c-2.054 4.797-5.827 8.57-10.625 10.627-.674.29-1.388.436-2.12.436-1.44 0-2.792-.56-3.81-1.577C.015 36.84-.434 34.513.438 32.477c2.055-4.796 5.83-8.57 10.625-10.626l2.533-1.085c.434-.53.522-1.267.21-1.89l-.513-1.03c-.192-.385-.117-.85.187-1.153l2.1-2.1c.39-.39 1.023-.39 1.414 0l8.4 8.4zm-2.12.706l-6.987-6.985-.884.884.192.384c.722 1.443.44 3.18-.702 4.324-.09.09-.196.162-.313.212l-2.73 1.17c-4.323 1.853-7.723 5.254-9.576 9.575-.548 1.28-.266 2.744.72 3.73.965.966 2.47 1.255 3.73.717 4.32-1.853 7.72-5.254 9.573-9.575l1.17-2.73c.05-.117.122-.223.212-.313 1.118-1.116 2.913-1.41 4.326-.702l.384.192.883-.883z"/></g></g></g></svg>