<svg width="263" height="300" viewBox="0 0 263 300" version="1.1" xmlns="http://www.w3.org/2000/svg"><title>special</title><desc>Created with Sketch.</desc><g id="Page-1" stroke="none" stroke-width="1" fill="none" fill-rule="evenodd"><g id="special" transform="translate(2 2)" stroke="#000" stroke-width="5" fill="#fff"><path d="M11.223 13.21C4.558 21.802.5 33.153.5 45.604c0 12.45 4.058 23.8 10.723 32.395" id="Shape"/><path d="M20.855 11.775v67.66l90.21-3.76v-60.14l-90.21-3.76zM258.01 28.69l-67.658-2.82V65.34l67.657-2.818V28.69zM111.065 19.293v52.623L190 68.626V22.583l-78.935-3.29z" id="Shape"/><g id="Group" transform="translate(111 59)"><path id="Rectangle-path" d="M.242 11.977h45.104V34.53H.242z"/><circle id="Oval" cx="22.794" cy="11.977" r="11.276"/></g><path d="M134.5 93.528L66.137 296.5M134.5 93.528L201.45 296.5M134.5 93.528V296.5" id="Shape"/><path id="Rectangle-path" d="M11.223.5h22.553v90.21H11.223zM126.5 90.5h16v16h-16z"/></g></g></svg>