<svg width="62" height="59" viewBox="0 0 62 59" version="1.1" xmlns="http://www.w3.org/2000/svg"><title>tripod</title><desc>Created with Sketch.</desc><g id="Page-1" stroke="none" stroke-width="1" fill="none" fill-rule="evenodd"><g id="tripod" fill="#000"><path d="M61.93 57.726L46.43 30.88l1.348-.964L33.088 4.47V2.89h4.818c.213.392.615.644 1.077.644h2.827c.683 0 1.237-.55 1.237-1.285 0-.736-.554-1.286-1.237-1.286h-2.827c-.462 0-.864.252-1.077.642h-4.818V0h-4.176v4.362L14.16 29.916l1.347.964-15.5 26.846 1.53.884 27.375-47.415V31h1.285v27.627h1.767V31h1.124V11.303L60.4 58.61l1.53-.884z" id="Shape"/></g></g></svg>