<svg width="22" height="23" viewBox="0 0 22 23" xmlns="http://www.w3.org/2000/svg"><title>wrench</title><desc>Created with Sketch.</desc><g fill="none" fill-rule="evenodd"><g transform="translate(-530 -132)" fill="#231F1F"><g transform="translate(48 129)"><path d="M498.952 24.53l-8.908-9.38c-.115-.122-.29-.173-.422-.127-2.05.728-4.41.2-5.952-1.34-1.07-1.07-1.663-2.495-1.67-4.01-.007-1.02 1.25-1.478 1.933-.794l2.04 2.04c.187.185.296.21.386.21.204 0 .6-.152 1.33-.882l.65-.65c.71-.71.89-1.088.916-1.28.016-.116-.017-.207-.247-.436l-2.018-2.02c-.703-.7-.22-1.932.787-1.932 1.51.02 2.916.613 3.973 1.67 1.562 1.56 2.08 3.83 1.352 5.92-.047.135.004.302.125.417l9.435 8.86c1.076 1.01 1.1 2.708.057 3.748-1.102 1.103-2.78 1.027-3.77-.016zm-8.22-10.034l8.907 9.38c.65.683 1.723.69 2.38.03.736-.735.65-1.802-.005-2.418l-9.434-8.86c-.395-.373-.54-.93-.37-1.42.607-1.743.176-3.636-1.127-4.938-.882-.88-2.054-1.375-3.3-1.392-.16 0-.233.204-.12.315l2.016 2.02c.193.193.6.598.515 1.23-.068.51-.433 1.075-1.186 1.826l-.65.648c-.79.792-1.426 1.16-2 1.16-.566 0-.936-.368-1.057-.49l-2.04-2.04c-.106-.104-.315-.046-.315.122.005 1.263.5 2.45 1.392 3.343 1.286 1.284 3.253 1.724 4.966 1.117.51-.18 1.064-.014 1.425.366zm10.546 8.712c-.278.278-.73.278-1.006 0-.28-.278-.28-.73 0-1.007.277-.277.728-.277 1.006 0 .28.28.28.73 0 1.008z"/></g></g></g></svg>